<?xml version="1.0" encoding="UTF-8"?>
<svg version="1.1" viewBox="-20 -20 1295.9 751.58" xmlns="http://www.w3.org/2000/svg">
 <path fill="currentColor" transform="translate(-12,-42.1)" d="m909.83 70.69c3.84 0.08 6.43 0.3 8.29 0.93q0.46 0.15 0.87 0.35t0.76 0.43c-0.43-0.15-0.75 0.07-0.75 0.56a1 1 0 0 0 0.2 0.64l-7.28-1.22a51 51 0 0 0-5.01-0.66h-0.01c-1.85-0.11-2.95 0.07-3.44 0.61a1 1 0 0 0-0.24 0.4v0.01q-0.1 0.27-0.07 0.62a6 6 0 0 0 1.88 3.74 9.5 9.5 0 0 0 3.88 1.9c3.33 0.9 4.88 1.83 4.9 3.02l-0.01 0.17v0.03q-0.04 0.22-0.13 0.45 0 0.02-0.02 0.05-0.07 0.18-0.2 0.37-0.1 0.19-0.26 0.3l-0.16 0.08q-0.67 0.28-1.88-0.8c-0.9-0.83-2.91-1.81-4.46-2.2a7 7 0 0 1-2.86-1.5l-0.48-0.44a7.4 7.4 0 0 1-2.2-4.5v-0.03a5 5 0 0 1 0.19-2.04l0.08-0.22a1 1 0 0 0 0.12 0.33c0.32 0.51 0.8 0.93 1.08 0.93h0.02l0.07-0.02 0.01-0.01c0.15-0.11 0.07-0.5-0.22-0.97-0.34-0.55-0.07-1 0.6-1q0.74-0.02 0.77-0.33c1.25-0.08 3.13-0.06 5.96 0m-4.58 46.36h0.06l0.07 0.05q0.07 0.04 0.13 0.15h0.01q0.07 0.1 0.14 0.23c0.08 0.13 0.18 0.39 0.26 0.57a47 47 0 0 1 1.99 5.67c0.65 2.15 1.39 4.79 2.18 7.82 1.64 6.27 2.56 11.37 2.62 13.29v0.41q0 0.17-0.04 0.27l-0.04 0.1-0.02 0.02-0.02 0.01h-0.01c-0.25 0.05-0.85-1.33-1.82-4.62-2.47-8.35-5.76-21.67-5.73-23.17a2 2 0 0 1 0.1-0.71l0.02-0.01 0.03-0.05v-0.01h0.02l0.01-0.01h0.01l0.02-0.01m32.76 77.71c0-0.07 1.36 1.25 1.88 1.7l-0.08-0.04c-0.46-0.18-0.8 0.03-0.8 0.54v0.07c-0.58-1.15-1-2.1-1-2.27m-159.73 4.4 0.16 0.1a9 9 0 0 1 1.02 0.79l0.37 0.32-0.58-0.48q-0.66-0.51-0.97-0.73m188.96 59.92h-0.01v0.01q-0.05 0.13 0.88 1.64c0.65 1.08 1.36 1.82 1.7 1.78h0.01l0.05-0.02h0.02l0.01-0.02h0.01c0.27-0.27-0.33-1.26-1.32-2.21a11 11 0 0 0-1.33-1.18zm-20.96-29.66h0.03c0.33 0.13 1.96 2.81 3.75 6.2 3.6 6.85 12.5 18.2 21.25 27.15 2.48 2.53 4.34 4.67 4.53 5.15l0.01 0.05v0.03l-0.01 0.01h-0.01l-0.02 0.01c-0.34 0-3.25-2.2-6.46-4.88-6.2-5.2-12.28-12-16.72-18.74-2.42-3.68-6.23-12.44-6.42-14.54q-0.01-0.16 0-0.28l0.05-0.14v-0.01h0.02m-7.05-187.31a3 3 0 0 0-0.74 0.11l-0.1 0.03q-0.55 0.15-1.23 0.47l-0.27 0.15q-0.57 0.3-1.28 0.73l-0.27 0.18c-2.5 1.62-6.17 4.58-12.22 9.69a490 490 0 0 1-12.24 10.12l-0.1 0.04-0.12 0.02h-0.14q-0.14 0-0.32-0.06a7 7 0 0 1-2.37-1.53 9 9 0 0 0-2.22-1.45 6 6 0 0 0-2.47-0.6 3 3 0 0 0-0.66 0.14 5.38 5.38 0 0 0-2.84 2.51l-0.18 0.42q-0.08 0.2-0.13 0.4a3 3 0 0 0-0.07 0.8 2 2 0 0 0 0.22 0.68 1 1 0 0 1 0.12 0.82 1.1 1.1 0 0 1-0.83 0.8 1.1 1.1 0 0 1-0.9-0.18 1 1 0 0 1-0.35-0.37 1 1 0 0 0-0.21-0.27c-1.24-1.21-4.97-0.85-6.29 0.74l-0.13 0.17a5.41 5.41 0 0 0-0.48 3.8c0.25 1 0.36 1.6 0.19 1.9l-0.02 0.04-0.13 0.13-0.15 0.06-0.1 0.02q-0.19 0.04-0.46 0.02a12 12 0 0 1-1.52-0.24 6 6 0 0 0-2.27-0.03l-0.39 0.1-0.1 0.04q-0.3 0.1-0.59 0.27-0.65 0.38-1.07 1.01a4 4 0 0 0-0.53 1.5q-0.1 0.67 0.01 1.47 0.05 0.4 0.16 0.82c0.28 1.13 0.3 1.97 0.08 2.14l-0.01 0.01h-0.01l-0.01 0.01h-0.02l-0.05 0.01h-0.02l-0.1-0.04q-0.16-0.1-0.5-0.1c-0.64-0.04-1.69 0.16-2.67 0.53q-0.94 0.34-1.42 0.75-0.38 0.34-0.52 0.83v0.05c-0.15 0.6-0.09 1.4 0.1 2.63q0.2 1.07 0.18 1.83a3 3 0 0 1-0.62 1.93 10 10 0 0 1-2.11 1.9c-1.71 1.26-9.47 7.8-17.25 14.52l-5.17 4.45q0.73-0.93 0.7-1.01l-0.01-0.01q-0.12-0.04-1.25 0.87c-0.96 0.76-1.75 1.55-1.75 1.75q0 0.22 0.07 0.31a2297 2297 0 0 1-20.15 17.04l-13.42 11.18-3.8-4.33c-2.1-2.38-7.26-8.6-11.48-13.82-12.14-15.03-25.22-29.93-27.24-31q-0.57-0.32-1.15-0.52a7 7 0 0 0-1.74-0.4 8 8 0 0 0-4.29 0.9l-0.46 0.26q-1.09 0.56-2.25 1.41c-4.65 3.43-6.09 5.26-6.1 7.8-0.02 2.04-2 4.38-4.07 5.42a5 5 0 0 1-1.95 0.55 3 3 0 0 1-0.77-0.08l-0.31-0.06a2 2 0 0 0-0.68 0.02 4 4 0 0 0-0.78 0.22c-1.54 0.6-3.74 2.27-7.42 5.54-3.04 2.7-5.82 5.7-7.04 7.52q-0.52 0.76-0.63 1.2c-0.38 1.51-0.12 3.22 1.25 5.86q0.68 1.31 1.76 2.97c2.89 4.46 8.04 11 16.56 21.38l16.03 19.5-3.97 4.04c-2.14 2.18-3.9 4.35-3.97 4.88v0.03c0 0.48 1.2 2.44 2.66 4.36l2.66 3.49-3.05 2.6c-1.68 1.44-7.04 5.97-11.91 10.07s-13.81 11.8-19.86 17.09l-9.17 7.94q0.71-0.9 0.67-0.98v-0.01q-0.13-0.02-1.25 0.87c-0.96 0.76-1.75 1.55-1.75 1.75q0 0.22 0.08 0.31a19143 19143 0 0 1-43.08 37l-31.15 26.67a19 19 0 0 0 1.16-1.6h-0.01q-0.13-0.02-1.25 0.87c-0.96 0.76-1.75 1.55-1.75 1.75q0 0.37 0.2 0.38l-18.68 16q0.47-0.44 0.98-1c0.62-0.69 1.09-1.3 1.28-1.66l0.1-0.22v-0.08h-0.01q-0.01-0.04-0.06-0.04c-0.27 0-1.31 0.9-2.31 2s-1.59 2-1.31 2q0.06 0 0.18-0.06l0.25-0.16-11.92 10.22c-2.25 1.92-9.96 8.6-17.14 14.84s-17.3 15.01-22.5 19.5l0.07-0.09q0.9-1.13 0.88-1.24l-0.01-0.01q-0.13-0.02-1.25 0.87c-0.96 0.76-1.75 1.55-1.75 1.75q0 0.31 0.15 0.37c-4.84 4.2-10.42 9.09-13.14 11.51-3.38 3.01-9.4 8.18-15.68 13.5q0.71-0.9 0.67-1-0.12-0.03-1.25 0.87c-0.96 0.76-1.75 1.55-1.75 1.75q0 0.2 0.06 0.3a999 999 0 0 1-17.35 14.37 274 274 0 0 0-11.8 10.08c-3.08 2.82-8.2 7.35-11.4 10.07l-5.8 4.93-2.93-1.68q-0.54-0.31-1.08-0.57a10 10 0 0 0-5.22-1.04q-1.56 0.14-3.16 0.84c-2.5 1.1-5.13 3.23-8.12 6.48-3.18 3.44-4.2 5.37-4.2 7.88a7 7 0 0 1-0.27 1.88 8 8 0 0 1-0.92 1.94q-0.44 0.69-1.06 1.43c-1.68 2.01-4.45 4.49-8.85 8.05a945 945 0 0 0-14.9 12.72c-5.17 4.5-9.25 7.64-11.34 8.79q-0.25 0.15-0.48 0.25-0.66 0.3-0.9 0.21c-0.8-0.3-2.64-0.56-4.11-0.57-2.3 0-3.7-0.34-4.3-1.05-0.58-0.72-0.34-1.81 0.67-3.36 1.75-2.67 1.75-2.7-2.1-6.62a26 26 0 0 0-2.89-2.57 8 8 0 0 0-2.27-1.33l-0.25-0.05h-0.07c-1.71 0-32.74 26.27-46.37 39.25l-7.9 7.53 1.96 3.36c1.07 1.84 3.13 3.76 4.56 4.26q0.8 0.3 1.48 0.35h0.35c1.26-0.05 2.52-0.82 4.92-2.72l4.14-3.28 2.47 2.31 2.46 2.32-0.1 0.12a8 8 0 0 0-0.8-0.86q-0.6-0.57-1.38-1.23l-2.25-1.91 1.9 2.25q1.52 1.79 2.13 2.15l-3.26 3.4a70 70 0 0 1-2.55 2.45 18 18 0 0 0 1.29-1.74l-0.01-0.01q-0.13-0.02-1.25 0.87c-0.96 0.76-1.75 1.55-1.75 1.75q0 0.3 0.15 0.37l0.08 0.01q0.07 0 0.17-0.04l-0.94 0.86q0.54-0.7 0.55-0.8v-0.02h-0.01q-0.1-0.04-1.25 0.87c-0.96 0.76-1.75 1.55-1.75 1.75q0 0.25 0.1 0.33l-0.1 0.08v-0.03q-0.14-0.02-1.25 0.87c-0.96 0.76-1.75 1.55-1.75 1.75v0.09c-3.2 2.84-6.84 6.02-10.48 9.16a1293 1293 0 0 0-23.5 20.66l-0.52 0.48q0.3-0.33 0.63-0.76 0.9-1.13 0.88-1.24l-0.01-0.01q-0.13-0.02-1.25 0.87c-0.96 0.76-1.75 1.55-1.75 1.75q0 0.4 0.26 0.38h0.04a1 1 0 0 0 0.23-0.1 350 350 0 0 1-9.03 8.01c-2.2 1.84-6.42 5.63-9.37 8.42l-5.38 5.07-3.39-3.7c-1.74-1.9-3.51-3.49-4.1-3.68l-0.08-0.02h-0.02l-0.1 0.01c-0.52 0.13-1.85 1.2-3.06 2.49-1.3 1.37-3 2.5-3.8 2.5h-0.06c-1.64 0.32-13.27 10.36-13.95 12.1-0.06 0.12 1.09 1.46 3.02 3.6q-0.39-0.38-0.96-0.83a10 10 0 0 0-1.18-0.86l-0.03-0.01h-0.04q-0.02 0.13 0.87 1.25c0.76 0.96 1.55 1.75 1.75 1.75l0.15-0.01q0.44-0.08 0.06-0.63c5.25 5.75 15.29 16.26 23.94 25.06l-0.02-0.01-2.25-1.91 1.9 2.25a27 27 0 0 0 1.97 2.07q0.22 0.18 0.28 0.18h0.11l0.04-0.01 0.05-0.01q0.23-0.07 0.1-0.34l3.47 3.49-1.92-1.63 1.9 2.25q1.93 2.29 2.41 2.25h0.02q0.17-0.03 0.17-0.32l0.43 0.43 0.04 0.06v0.02l0.02 0.1-0.01 0.06c-0.08 0.38-0.66 1.1-1.55 1.9q-0.57 0.52-1.27 1.06l-3.4 2.6-14.1-14.2-7.86-7.93q0.32 0.24 0.5 0.22l0.06-0.01 0.02-0.02h0.02l0.01-0.02q0.09-0.09 0.09-0.33c0-0.2-0.79-1-1.75-1.75a10 10 0 0 0-1.18-0.86l-0.03-0.01h-0.04q-0.02 0.13 0.87 1.25l0.42 0.51-5.23-5.26-10.28-0.5q-2.7-0.12-4.72-0.28a25 25 0 0 1-3.32-0.45q-0.33-0.07-0.62-0.16-1.27-0.38-1.62-1.1l-0.07-0.17q-0.15-0.43 0.02-1c0.63-2.4 5.02-6.79 13.52-15.15 7.5-7.4 12.02-12.26 13.9-15.41 1.2-2.03 1.32-3.33 0.43-4.14a2 2 0 0 0-0.34-0.25 3 3 0 0 0-0.89-0.4q-0.51-0.17-1.17-0.27a22 22 0 0 0-5.67-0.04q-0.6 0.09-1.16 0.21-2.26 0.52-3.98 1.62-1.29 0.83-2.2 1.94a8 8 0 0 0-1.83 4.33 9 9 0 0 0-0.07 1.15q0 0.07-0.02 0.16c-0.27 1.6-2.61 4.88-6.65 9.44l0.28-0.4c0.26-0.39 0.35-0.63 0.21-0.63-0.27 0-1.31 0.9-2.31 2s-1.59 2-1.31 2h0.04l0.05-0.02 0.12-0.06c0.27-0.15 0.72-0.52 1.22-1-2.6 2.82-5.75 6.06-9.4 9.62-2.5 2.46-4.12 4.47-4.58 5.68l-0.1 0.35-0.03 0.3 0.03 0.18 0.02 0.05q0.08 0.15 0.24 0.37a46 46 0 0 0 4.58 4.62l-1.88-1.59 1.9 2.25c1.05 1.24 2.06 2.25 2.25 2.25h0.1q0.68-0.06-0.48-1.22l0.25 0.22c1.54 1.33 3.12 2.78 4.52 4.12q0.15 0.26 0.83 1.13c0.76 0.96 1.55 1.75 1.75 1.75q0.15 0 0.24-0.04 0.68 0.74 1.05 1.22l2.04 2.68-4.97 3.06q-1.97 1.2-3.09 2.1-0.29 0.22-0.51 0.45c-1.1 1.02-1.4 1.88-1.06 2.92l0.18 0.45q0.34 0.7 1 1.55c1.32 1.75 0.94 2.26-4.98 6.74-3.13 2.37-4.96 3.6-6.44 4.1a5.45 5.45 0 0 1-2.93 0.15c-2.62-0.52-5.59 0.04-8.31 1.46a17 17 0 0 0-4.5 3.43 23 23 0 0 0-2.56 3.22 18 18 0 0 0-2.67 7.41q-0.33 2.19-0.41 4.95l-0.02-0.04c-0.32-0.8-0.55-0.56-0.6 0.6-0.04 0.88 0.12 1.44 0.36 1.41l0.07-0.02 0.1-0.07c-0.2 2.84-0.68 4.5-1.33 4.88a1 1 0 0 1-0.3 0.07h-0.07q-0.76-0.1-1.74-2.2-0.2-0.44-0.36-0.9l-0.1-0.29a17 17 0 0 1-0.63-6.85c-0.04 1.04 0.2 1.62 0.52 1.29 0.34-0.33 0.37-1.2 0.08-1.92q-0.36-0.88-0.53-0.1c0.03-0.25 0.1-0.5 0.13-0.76q0.3-2 0.92-4.01 0.39-1.2 0.87-2.38l0.07-0.14a29 29 0 0 1 3.74-6.38 23 23 0 0 1 3.4-3.44c3.11-2.47 4.94-3.08 10.18-3.42 7.98-0.5 11.66-3.61 11.97-10.1l0.2-4.08h-105.73l-20.96 21-2.69 2.44c-1.79 1.61-3.25 3.08-3.25 3.25q0 0.15 0.04 0.22l-2.64 2.65-0.52 0.53q0-0.09-0.07-0.09c-0.27 0-1.31 0.9-2.31 2a8 8 0 0 0-1.36 1.83l-4.27 4.28q0.03-0.1-0.06-0.11c-0.27 0-1.31 0.9-2.31 2a7 7 0 0 0-1.37 1.86l-0.13 0.14a6 6 0 0 0-1.25 0.87c-0.96 0.76-1.75 1.55-1.75 1.75q0 0.22 0.07 0.3l-5.66 5.68 0.09-0.1-3.25 2.94c-1.79 1.61-3.25 3.08-3.25 3.25q0 0.18 0.07 0.25l-0.07 0.07v-0.01q-0.11-0.03-1.25 0.87c-0.96 0.76-1.75 1.55-1.75 1.75q0 0.22 0.08 0.32l-5.08 5.06a6 6 0 0 0-1.25 0.87c-0.96 0.76-1.75 1.55-1.75 1.75q0 0.22 0.07 0.31l-4.2 4.2v-0.09l-0.01-0.02v-0.02h-0.01l-0.04-0.01c-0.27 0-1.31 0.9-2.31 2a8 8 0 0 0-1.36 1.85c-14.64 14.6-28.28 28.16-36.39 36.16-14.16 13.98-25.75 25.54-25.75 25.7 0 0.49 125.8 0.33 217.31-0.21 1.16 0.07 3.83 0.1 7.69 0.1 5.55 0 8.64-0.08 8.3-0.2l3.3-0.03 3.28-0.02q-0.25 0.06-0.27 0.1v0.02c0.04 0.14 1.28 0.23 3.39 0.23 2.1 0 3.33-0.1 3.4-0.22v-0.02l-0.02-0.02-0.07-0.04-0.06-0.02-0.36-0.08 5.94-0.04h-0.05a4 4 0 0 0-1.06 0.17v0.03q0.03 0.03 0.17 0.05c0.52 0.09 2.13 0.15 4.61 0.15 2.89 0 4.7-0.07 5.04-0.19l0.05-0.02v-0.03h-0.01l-0.01-0.01a3 3 0 0 0-0.8-0.14l-0.74-0.06 7.5-0.06a15 15 0 0 0-1.72 0.22l-0.19 0.06q-0.01 0-0.03 0.02h-0.02v0.02h-0.01v0.02c0.06 0.13 1.11 0.22 2.94 0.22 1.72 0 2.85-0.06 3.15-0.18q0.07-0.02 0.09-0.05v-0.01q-0.02-0.09-0.48-0.17c-0.4-0.08-0.92-0.14-1.48-0.16l63.1-0.47 20.39-30.58c21.46-32.21 50.7-76.41 62.22-94.09a511 511 0 0 1 7.8-11.75q0.09-0.13 0-0.24a1 1 0 0 0-0.32-0.17c-1.9-0.66-11.49-0.84-37.6-0.84h-38.87l0.3 4.78-0.1-0.51q-0.12-0.44-0.23-0.48c-0.15-0.04-0.26 0.58-0.27 1.71-0.02 1.28 0.1 2.04 0.28 2l0.04-0.01q0.06-0.04 0.14-0.22c0.12-0.3 0.2-0.76 0.2-1.24q0.09 1.45 0 2.52-0.03 0.55-0.13 1.04-0.02 0.13-0.06 0.25-0.07 0.36-0.18 0.71-0.15 0.47-0.37 0.93l-0.24 0.46q-0.12 0.25-0.27 0.5v0.01q-0.58 0.99-1.5 2.24c-2.12 2.93-4.18 4.51-6.82 5.25-5.5 1.52-7.3 1.32-12-1.37l-4.22-2.41-3.28 3.3a274 274 0 0 1-10.25 9.43 99 99 0 0 1-3.76 3.18c-1.04 0.82-1.9 1.42-2.68 1.86a8 8 0 0 1-4.48 1.07 13 13 0 0 1-2.2-0.18 8.5 8.5 0 0 1-3.54-1.85c0.41-0.17-0.34-1.03-2.63-3.05l-2.75-2.42 2.42 2.75 0.74 0.82q-1.46-1.34-3.5-3.32l-7.5-7.25-0.78 2.88q-0.33 1.2-0.97 2.34l-0.25 0.47a13 13 0 0 1-2.94 3.41q-0.22 0.17-0.44 0.3-0.52 0.38-1.03 0.63l-0.19 0.1q-0.84 0.37-1.6 0.37c-0.62 0-1.72 0.48-3 1.23-2.9 1.7-6.77 4.76-8.52 6.8a8 8 0 0 0-0.7 0.92l-0.13 0.25-0.08 0.23-0.03 0.2a5 5 0 0 1-0.1 0.97c-0.4 2.05-1.89 4.55-3.1 5.23l-0.3 0.12a1 1 0 0 1-0.57 0.02c-0.89-0.18-0.97-1.28-0.5-4.72 0.24-1.67 0.53-2.9 1.11-4.09 0.84-1.68 2.27-3.28 5.01-5.91 0.94-0.9 1.92-1.77 2.83-2.51q1.4-1.14 2.5-1.86l0.54 0.04c0.69 0.03 1.18-0.06 1.34-0.22l0.03-0.03 0.02-0.05 0.01-0.03v-0.07l-0.1-0.12q-0.18-0.18-0.53-0.25 0.36-0.15 0.59-0.15c0.98 0 2.78-0.7 4-1.56q0.58-0.4 0.95-0.74c0.46-0.42 0.68-0.8 0.7-1.23q0.01-0.18-0.02-0.38l-0.06-0.27q-0.13-0.43-0.43-0.96a11 11 0 0 1-0.75-1.76q-0.07-0.31-0.03-0.4 0-0.02 0.02-0.02l0.01-0.02c0.19-0.09 1.79-1.47 3.56-3.07l3.22-2.92 2.23 2.15a9 9 0 0 0-1.12-0.82h-0.06q-0.02 0.13 0.87 1.25c0.76 0.96 1.55 1.75 1.75 1.75q0.59-0.01 0.28-0.52l2.07 1.99q-0.33-0.3-0.72-0.6a10 10 0 0 0-1.18-0.86l-0.03-0.01h-0.04q-0.02 0.13 0.87 1.25c0.92 1.17 1.6 1.78 1.92 1.75h0.02l0.04-0.01 0.02-0.01 0.01-0.01 0.04-0.02 0.04-0.08 0.02-0.05 0.02-0.2q-0.01-0.12-0.31-0.46l2.25 2.18c3.7 3.57 7.28 6.66 9.17 7.98q0.63 0.44 0.99 0.6l0.24 0.08h0.12q0.14-0.02 0.32-0.09c1.11-0.4 3.57-2.12 5.9-4.16l0.5-0.43q-0.18 0.21-0.18 0.3 0 0.38 0.23 0.38h0.05l0.05-0.01q0.21-0.06 0.55-0.36 0.51-0.45 1.25-1.38 0.9-1.15 0.87-1.25-0.04-0.02-0.14 0.05-0.18 0.1-0.56 0.4c5.43-4.8 10.88-9.74 13.28-12.03l2.18-2.09 3.8 2.84c7.92 5.9 17.44 2.48 17.44-6.28a15 15 0 0 0-0.47-3.64 10.6 10.6 0 0 0-3.35-5.4 8 8 0 0 0-3.85-1.75q-0.65-0.1-1.31-0.1a9 9 0 0 1-3.18-0.41 2.5 2.5 0 0 1-0.83-0.6q-0.16-0.18-0.28-0.41a3 3 0 0 1-0.2-0.5c-0.34-1.06-1.74-3.58-3.11-5.6l-2.5-3.68 8.43-7.89 4.65-4.3v0.01q0 0.38 0.23 0.38h0.05l0.05-0.01q0.21-0.06 0.55-0.36 0.51-0.45 1.25-1.38a7 7 0 0 0 0.88-1.23v-0.01h-0.02q-0.03 0-0.08 0.02l-0.15 0.09c2.18-1.96 4.07-3.63 5.17-4.55a844 844 0 0 0 27.02-24.06c4.75-4.4 13.75-12.5 19.99-18l2.06-1.82q0.02 0.35 0.26 0.32h0.04c0.36-0.08 1-0.69 1.83-1.75a8 8 0 0 0 0.87-1.21l4.1-3.61q-0.1 0.12-0.1 0.2 0 0.37 0.23 0.37h0.05l0.05-0.01q0.21-0.06 0.55-0.36 0.51-0.45 1.25-1.38 0.9-1.14 0.87-1.24v-0.01q-0.04-0.02-0.23 0.1l-0.24 0.17 0.87-0.77c0.6-0.55 5.83-5.05 11.6-10s11.44-9.89 12.6-11a485 485 0 0 1 6.38-5.91c4.08-3.72 4.2-4 2.4-5.34-0.55-0.42-0.97-0.73-0.8-1.39q0.56-0.36 1.55-1.61a6 6 0 0 0 0.87-1.24v-0.01q-0.04-0.01-0.14 0.04-0.17 0.1-0.54 0.4 0.67-0.74 1.68-1.72 0.03 0.29 0.23 0.28 0.07 0 0.15-0.03l0.11-0.05 0.13-0.08q0.56-0.4 1.5-1.59a6 6 0 0 0 0.89-1.23v-0.02h-0.07l-0.13 0.08c3.44-3.17 8.6-7.74 16.19-14.43q0 0.36 0.24 0.35l0.15-0.03q0.57-0.24 1.74-1.72 0.85-1.06 0.87-1.22v-0.03l1.26-1.12c7.54-6.65 11.53-10.12 14.15-11.93s3.87-1.96 5.95-1.96q1.2 0 2.25-0.15a11 11 0 0 0 3.04-0.91c1-0.46 2.02-1.09 3.16-1.92 2.92-2.11 4.8-4.04 5.84-6.33q0.22-0.5 0.4-1 0.33-1.04 0.48-2.2c0.2-1.55 0.14-3.3-0.13-5.37a51 51 0 0 0-0.58-3.46l0.01-0.15q0-0.09 0.03-0.17 0.09-0.42 0.43-0.98 0.28-0.45 0.7-0.99a32 32 0 0 1 4.17-4.08c3.11-2.63 15.44-13.34 27.4-23.79s27.69-24.18 34.96-30.5l15.52-13.5-0.04 0.12q0 0.38 0.23 0.38h0.05l0.05-0.01q0.22-0.06 0.55-0.36 0.51-0.45 1.25-1.38 0.88-1.12 0.88-1.24h-0.07l-0.05 0.03 1.76-1.53c3.8-3.3 9.3-8.03 12.25-10.5 7.2-6.05 28.1-23.86 30.6-26.07a3398.9 3398.9 0 0 1 15.58-13.49q-0.08 0.12-0.08 0.18 0 0.38 0.23 0.38h0.05l0.05-0.01q0.22-0.06 0.55-0.36 0.51-0.45 1.25-1.38 0.86-1.09 0.88-1.23v-0.02h-0.06l-0.04 0.02 7.08-6.04c3.58-3.01 7.4-6.32 8.5-7.35s8.53-7.42 16.51-14.21 17.88-15.31 22-18.92 14.25-12.26 22.5-19.23a1589 1589 0 0 0 28.5-24.57q0.02 0.33 0.26 0.31h0.05q0.54-0.15 1.82-1.75 0.64-0.8 0.81-1.09c6.95-5.93 12.31-10.16 12.97-10.16l0.08 0.01q0 0.13 0.88 1.24c0.76 0.96 1.55 1.75 1.75 1.75 0.51 0 0.5-0.32 0.02-0.87l0.36 0.37q0.56 0.6 1.03 1.04a4.5 4.5 0 0 0 1.92 1.22q0.7 0.16 1.48-0.15c0.92-0.37 2.03-1.22 3.6-2.57a26 26 0 0 1 3.96-2.93l0.12-0.05 0.1-0.02c0.38-0.02 5.1 5.18 10.5 11.56l9 10.65a18 18 0 0 0-1.64-1.24l-0.03-0.01h-0.04q-0.02 0.13 0.87 1.25c0.76 0.96 1.55 1.75 1.75 1.75h0.1q0.3-0.03 0.28-0.23c6.3 7.4 9.6 11.2 11.96 13.69q-0.3-0.27-0.71-0.59a10 10 0 0 0-1.18-0.86l-0.03-0.01h-0.04q-0.02 0.13 0.87 1.25c0.76 0.96 1.55 1.75 1.75 1.75l0.15-0.01q0.43-0.08 0.06-0.63c1.1 1.13 2 1.98 3.01 2.89q1.1 0.99 2.05 1.72 0.96 0.72 1.84 1.18a8 8 0 0 0 1.72 0.64 5 5 0 0 0 0.86 0.11c2.58 0.12 5.35-1.66 9.97-5.55a68 68 0 0 0 4.75-4.35q0.91-0.95 1.44-1.61 0.25-0.33 0.4-0.57l0.12-0.3v-0.03l0.01-0.03q0.01-0.48 0.41-1.13a7 7 0 0 1 0.48-0.66 20 20 0 0 1 4.62-3.98c0.7-0.45 1.4-0.8 1.98-1.02a4 4 0 0 1 0.81-0.22q0.28-0.04 0.5 0 0.06 0 0.13 0.03 0.2 0.06 0.48 0.02c1.3-0.2 3.7-2.1 5.88-4.34a32 32 0 0 0 3.29-3.94c0.86-1.26 1.42-2.38 1.42-3.11q0-0.4-0.28-1.12a43 43 0 0 0-3.72-6.62 164 164 0 0 0-9.3-12.77c-19.63-24.48-23.57-29.27-25.03-30.47a6 6 0 0 1-1.51-1.9q-0.15-0.34-0.16-0.6c0-1.11 12.1-11.77 36.5-32.16 12.98-10.85 17.56-14.47 19.45-15.06q0.25-0.07 0.46-0.09l0.18 0.01q0.04 0 0.09 0.02h0.02l0.1 0.04h0.03l0.06 0.05c0.54 0.33 2.36 3 4.03 5.92q0.67 1.19 1.37 2.73a83 83 0 0 1 3.94 11.53 136 136 0 0 1 3.71 18.88l2.56 21.05c1.67 13.72 4.04 21.5 9 29.56a97 97 0 0 1 5.53 10.5q0.44 1.02 1.2 2.3a44 44 0 0 0 5.77 7.59 44 44 0 0 1 7.94 11.84 60 60 0 0 0 7.54 12.09c2.47 2.89 5.46 7.46 6.63 10.16a65 65 0 0 0 10.59 16.77 79 79 0 0 0 7.49 7.52q4.14 3.65 9.17 7.2l9.5 6.7 4.64 3.26 0.56-3.77c0.15-0.96 0.18-1.94 0.1-2.84a10 10 0 0 0-0.32-1.88q-0.15-0.5-0.35-0.92l-0.18-0.35c-0.72-1.21-1.31-4.45-1.31-7.19 0-0.91-0.05-1.81-0.15-2.61q-0.15-1.21-0.4-2.02a5 5 0 0 0-0.25-0.66l-0.14-0.22-0.1-0.1-0.05-0.03a1 1 0 0 1-0.3-0.3l-0.15-0.28a3 3 0 0 1-0.22-1.32 4 4 0 0 1 0.13-0.86 4.5 4.5 0 0 0-0.6-3.47 2 2 0 0 1-0.23-0.34c-0.53-0.92-0.95-2.67-0.98-4.2a9 9 0 0 0-0.13-1.49 4 4 0 0 0-0.36-1.03 2 2 0 0 0-0.28-0.37l-0.16-0.16q-0.44-0.34-1.13-0.46a6 6 0 0 1-0.92-0.28c-1-0.37-2.14-1.04-2.89-1.7a4 4 0 0 1-1-1.28 3 3 0 0 1-0.23-0.76l-0.04-0.27a4 4 0 0 1 0.04-1.25l0.15-0.72q0.19-0.75 0.56-1.68a60 60 0 0 1 3.94-7.49l3.99-6.75-3.71-5.6a78 78 0 0 0-10.25-12.1c-3.77-3.66-7.52-6.58-10.14-7.68-10.85-4.57-16.27-7.13-19.49-9.71a14 14 0 0 1-3-3.23q-0.6-0.87-1.1-1.87l-0.01-0.02q0.25 0.22 0.6 0.22c0.55 0 1-0.2 1-0.44q0-0.07-0.04-0.16c0.9 0.83 1.03 0.85 2.29 2.07 4.52 4.37 12.92 8.95 15.08 8.37l0.2-0.08 0.15-0.1q0.06-0.08 0.09-0.21l0.03-0.21-0.01-0.61q-0.05-0.74-0.25-1.88c-0.06-0.34-0.21-0.9-0.3-1.29-0.95-4.77-3.14-12.7-5.5-19.26a56 56 0 0 0-2.87-6.54 91 91 0 0 0-4.07-7.09 108 108 0 0 0-10.39-13.78c-4.8-5.35-7.4-11.1-13.8-30.56-2.76-8.39-4.33-13.24-4.75-16.88 0.03-0.46 0-0.94-0.11-1.34a14 14 0 0 1 0.01-1.45c0.21-3.27 1.63-5.95 4.21-10.63 1.34-2.43 2.19-4.23 2.56-5.96a10 10 0 0 0 0.14-3.5q-0.11-0.93-0.39-1.96c-0.35-1.4-0.91-3-1.66-4.96l-2.2-5.75q0.24 0.2 0.58 0.2c0.55 0 1-0.2 1-0.44q0-0.05-0.02-0.09 0.32 0.38 0.6 0.81 0.28 0.45 0.53 0.96 0.49 1.03 0.93 2.38c0.46 1.4 0.97 2.6 1.29 3.11q0.13 0.21 0.22 0.26h0.01l0.02 0.01h0.02l0.04-0.01q0.12-0.05 0.33-0.18c0.57-0.36 1.66-1.2 2.79-2.19 4.43-3.83 12.6-10.8 18.12-15.42q1.24-1.05 2.19-2a13 13 0 0 0 2.6-3.28l0.14-0.34a3 3 0 0 0 0.18-1 2 2 0 0 0-0.08-0.43c-0.43-1.48-2.25-4.4-4.3-7.19-2.2-2.98-4.67-5.8-5.98-6.53l-0.25-0.11a3 3 0 0 0-1.16-0.21m9.76 18.9q-0.16 0-1.23 0.87c-0.96 0.76-1.75 1.55-1.75 1.75q0 0.38 0.23 0.38h0.05l0.05-0.01q0.22-0.06 0.55-0.36 0.51-0.45 1.25-1.38 0.9-1.13 0.88-1.24l-0.01-0.03zm79.93 124.11c-0.35-0.02-0.75 0.04-1.1 0.19-0.8 0.32-0.57 0.55 0.6 0.6 0.65 0.03 1.13-0.05 1.32-0.2l0.02-0.02q0.13-0.14-0.03-0.3c-0.17-0.17-0.47-0.26-0.81-0.28m2.02 110.83v0.01h0.01v0.05c0.04 2.13-2.57 9.33-5.35 14.82a41 41 0 0 1-4.5 6.5c-0.94 1.13-1.72 1.93-2.03 2l-0.04 0.01q-0.04 0-0.07-0.02v-0.01l-0.02-0.08 0.03-0.23q0.06-0.19 0.2-0.49c3.4-7.63 11.3-22.72 11.77-22.56m10.09 21.35a3.4 3.4 0 0 0-1.67 0.58q-1.06 0.58-1.06 0.82 0 0.03 0.02 0.06l0.01 0.01c0.16 0.16 0.84 0.2 2.13 0.21 2.15 0.02 2.65-0.27 1.85-1.07-0.4-0.4-0.8-0.6-1.28-0.6m-5.1 0.83c-0.35-0.01-0.75 0.05-1.1 0.2q-0.49 0.2-0.47 0.34v0.01q0.06 0.2 1.07 0.25c0.65 0.03 1.13-0.05 1.32-0.2l0.02-0.02q0.13-0.13-0.03-0.3c-0.17-0.17-0.47-0.26-0.81-0.28m9.77-1.04c4.28 0.16 8.46 0.64 11.31 1.41 3.03 0.81 7.9 1.48 10.82 1.49 2.19 0 4.62 0.3 6.2 0.71q0.4 0.1 0.71 0.22 0.33 0.1 0.54 0.23 0.53 0.27 1.05 0.64 0.53 0.36 1.02 0.8a12.5 12.5 0 0 1 3.31 4.2q0.28 0.67 0.29 1.21c0 0.87-1.21 0.03-2.9-2q-0.96-1.17-1.7-1.88c-1.53-1.42-2.79-1.6-6.11-1.55a19.7 19.7 0 0 0-15.73 8.12 197 197 0 0 0-4.27 5.92 5 5 0 0 1-0.93 1.2h-0.04v-0.01q-0.1-0.16 0.35-1.8a21.8 21.8 0 0 1 6.35-10.63c1.67-1.57 3.04-3.16 3.04-3.51v-0.03l-0.03-0.05-0.02-0.03-0.06-0.05q-0.17-0.15-0.61-0.3-0.72-0.23-1.96-0.48a84 84 0 0 0-6.39-0.97c-4.93-0.58-10.66-0.97-13.86-0.8q-2.71 0.15-4.22 0.06a8 8 0 0 1-1.2-0.14q-1-0.24-0.2-0.62l0.38-0.16q0.89-0.3 2.92-0.65c3.26-0.54 7.65-0.7 11.94-0.55m-39.12 19.92c-0.29 0.03-0.98 0.92-1.56 2-0.59 1.1-0.85 2-0.57 2h0.01c0.29-0.03 0.98-0.92 1.56-2a6 6 0 0 0 0.68-1.84v-0.04l-0.02-0.06q-0.03-0.06-0.09-0.06zm0.76-2.53c-0.01 0.31 0.2 0.53 0.61 0.53q0.1 0 0.2-0.02a70 70 0 0 1-2.66 6.36c-6.75 14.6-9.75 25.25-9.83 34.91l-0.03 2.76c-0.06 3.47-0.15 5.99-0.24 5.99q-0.1 0-0.23-0.16l-0.1-0.12c-0.86-1.39-2.05-7.51-2.05-11.16 0-8.91 5.03-23.38 12.64-36.39a43 43 0 0 1 1.7-2.7m102.28 36.92c-0.31 0-0.74 0.52-1.05 1.32q-0.47 1.22-0.24 1.2h0.02q0.19-0.04 0.79-0.64c0.68-0.68 0.98-1.49 0.68-1.8a0.3 0.3 0 0 0-0.2-0.08m1.13-3.92h0.02v0.01l0.03 0.03a1 1 0 0 1 0.03 0.34v0.1q-0.03 0.68-0.26 2.46c-0.27 2.16-1.7 6.3-3.17 9.21a42 42 0 0 1-2.6 4.42 21 21 0 0 1-2.52 3.17 4 4 0 0 1-1.14 0.84l-0.06-0.01c-0.33-0.2 0.63-2.33 3.2-7.54a832 832 0 0 0 5.62-11.5q0.44-0.94 0.65-1.3 0.08-0.15 0.14-0.2l0.04-0.02zm-97.3 17.78h0.26l0.07 0.02q0.07 0 0.15 0.02 0.15 0.02 0.32 0.07l0.05 0.01 0.35 0.14 0.09 0.04q0.15 0.07 0.29 0.17l0.06 0.04 0.4 0.32 0.22 0.24 0.07 0.07q0.14 0.17 0.27 0.35l0.04 0.07 0.2 0.34 0.05 0.1 0.08 0.2q0.1 0.21 0.18 0.47l0.08 0.23a6 6 0 0 1 0.21 1.53 2 2 0 0 1-0.11 0.6l-0.14 0.22c-0.3 0.37-0.91 0.5-1.94 0.5l-0.52-0.03a5.4 5.4 0 0 1-3.21-1.52c-0.47-0.56-0.71-0.98-0.73-1.4-0.02-0.53 0.34-1.05 1.13-1.83a4 4 0 0 1 1.2-0.8l0.04-0.01 0.11-0.04 0.14-0.04a3 3 0 0 1 0.59-0.08m95.26 33.56h0.04l0.03 0.01 0.01 0.01h0.01v0.01l0.02 0.02 0.02 0.04v0.04l0.01 0.01v0.06l-0.02 0.27v0.07a22.35 22.35 0 0 1-0.6 1.81c-0.54 1.4-1.4 3.4-2.7 6.08-1.9 4-4.11 9.52-4.9 12.27a52 52 0 0 1-1.16 3.76l-0.08 0.12-0.04 0.02h-0.03l-0.02-0.03-0.03-0.05-0.04-0.18q-0.07-0.56-0.12-2.23v-0.14c0.22 0.51 0.77 0.02 1.28-1.32 0.34-0.9 0.18-1.3-0.4-0.94a2.3 2.3 0 0 0-0.86 1.03q0.05-0.94 0.17-1.92 0.14-0.99 0.36-2 0.45-2.03 1.25-4.15t1.9-4.26a44 44 0 0 1 2.54-4.26 37 37 0 0 1 2.51-3.4l0.36-0.4 0.33-0.29 0.07-0.03 0.05-0.02h0.03zm-96.18 7.17h0.04q0.21 0.07 0.66 0.73 0.41 0.61 0.97 1.66a95 95 0 0 1 2.6 5.34h0.01c1.92 4.2 4.02 9.3 5.34 13.2a52 52 0 0 1 2.53 10.45c0.65 5.38 0.05 10.34-1.76 16.26-1 3.24-2.16 6.3-2.83 7.46q-0.16 0.27-0.29 0.4-0.45 0.45-0.6 0.3l-0.03-0.06-0.02-0.06v-0.27q0-0.1 0.04-0.24 0.05-0.28 0.15-0.67c1.35-4.82 3.67-17.66 3.65-20.2 0-0.8-0.25-2.25-0.66-4.07-0.4-1.82-0.97-4.01-1.61-6.29-1.29-4.55-2.9-9.45-4.18-12.44-1.3-3.02-2.41-5.88-3.15-8-0.14-0.4-0.2-0.63-0.31-0.98-0.18-0.56-0.4-1.19-0.49-1.56q-0.09-0.4-0.12-0.63a1 1 0 0 1 0-0.27l0.02-0.04h0.01l0.01-0.01zm64.04 24.09q0.19-0.02 0.06 1.02-0.11-0.5-0.44-0.58l0.14-0.21q0.15-0.2 0.22-0.22zm16.88 24.26h0.1l0.03 0.01 0.02 0.01h0.01v0.01l0.03 0.02 0.02 0.01v0.02h0.01l0.02 0.04 0.01 0.06v0.11l-0.01 0.05-0.01 0.02q0 0.05-0.04 0.1v0.02l-0.16 0.32c-0.42 0.74-1.53 2.25-2.47 3.35-0.93 1.1-4.05 5.94-6.92 10.75-3.03 5.1-4.65 7.64-5.44 8.41l-0.1 0.1-0.2 0.14-0.1 0.03a0.2 0.2 0 0 1-0.14-0.07l-0.02-0.02q-0.09-0.16-0.08-0.51c0-1.5 8.38-16.99 10.37-19.17q0.92-0.99 1.88-1.8l0.48-0.4q0.72-0.56 1.34-0.95c0.16-0.1 0.34-0.25 0.48-0.32l0.09-0.05 0.42-0.2h0.02l0.17-0.06zm-190.18 35.85a2 2 0 0 1 0.59 0.05l0.05 0.02 0.04 0.04v0.02l0.01 0.02v0.02l-0.05 0.08c-0.4 0.44-2.9 1.35-6.41 2.3-5.23 1.4-8.7 2.29-10.72 2.7l-0.05-0.05c-0.33-0.34-1.2-0.37-1.92-0.08l-0.06 0.02a4 4 0 0 1 0.9-0.54l0.3-0.13 0.48-0.2c0.23-0.1 0.56-0.21 0.84-0.31 0.4-0.15 0.8-0.3 1.29-0.46 0.6-0.2 1.36-0.4 2.03-0.6 1.19-0.36 2.36-0.72 3.65-1.07 0.76-0.2 1.45-0.34 2.2-0.52 1.16-0.29 2.33-0.58 3.34-0.78 1.46-0.3 2.77-0.52 3.5-0.53m1.98 34a3 3 0 0 0-0.5 0.14q-0.4 0.15-0.26 0.29h0.01l0.06 0.05 0.04 0.01q0.35 0.15 1.4 0.15 0.52 0 0.87-0.04c0.7-0.07 0.9-0.25 0.38-0.46l-0.2-0.07c1.5 0.1 4.97 0.74 7.14 1 8.43 1 19.06 2.6 28.4 4.6 1.08 0.22 2.41 0.45 3.39 0.67l1.03 0.26c2.8 0.67 5 1.29 6.49 1.84 0.3 0.1 0.77 0.23 1 0.33l2 0.9-1.83-0.02q0.32-0.1 0.33-0.24c0-0.22-0.67-0.66-1.5-0.97-0.83-0.32-1.5-0.14-1.5 0.4q0 0.29 0.25 0.52l0.07 0.07c-10.06-1.34-48.22-8.2-48.9-8.88l-0.06-0.06-0.03-0.05-0.03-0.09 0.01-0.03a0.2 0.2 0 0 1 0.08-0.1l0.06-0.04q0.09-0.04 0.22-0.07l0.09-0.02 0.2-0.03q0.16-0.02 0.34-0.03 0.36-0.03 0.86-0.03zm0.09 35.96h0.04l0.01 0.01h0.01l0.1 0.06 0.04 0.04 0.11 0.12a0.5 0.5 0 0 0-0.43 0.21l-0.05 0.07 0.04-0.35 0.01-0.04v-0.01l0.01-0.01 0.01-0.02v-0.01l0.01-0.01h0.01v-0.02h0.01l0.01-0.01h0.01l0.03-0.02zm2.1 7.16a0.2 0.2 0 0 0-0.17 0.07c-0.27 0.26-0.18 0.96 0.18 1.54 0.98 1.6 1.56 1.29 0.89-0.47-0.27-0.7-0.64-1.14-0.9-1.14m-0.92-5.39a58 58 0 0 1 2.42 6.5c4.59 14.49 11.06 26.14 19.99 36a71 71 0 0 1 5.04 6.02l0.02 0.06v0.1l-0.01 0.04-0.05 0.1-0.04 0.05-0.09 0.05h-0.07a1.3 1.3 0 0 1-0.6-0.2c-0.9-0.48-2.44-1.84-4.27-3.69 0.43-0.17-0.16-0.94-1.62-2.09a10 10 0 0 0-1.19-0.86c-3.8-4.17-7.97-9.37-10.14-13.03-3.8-6.38-8.7-19.58-10.42-27.98v-0.04h0.04q0.07 0 0.16-0.05 0.32-0.15 0.76-0.84zm135.62-396.48-0.12 0.02-0.03 0.02c-0.35 0.21-5.78 0.47-12.07 0.58-4.72 0.08-9.1 0.39-11.28 0.76q-1.11 0.2-1.38 0.4a3 3 0 0 1-0.87 0.36l-0.25 0.05c-1.22 0.3-3.17 0.52-5.13 0.5-2.25-0.01-4.16 0.22-4.8 0.56a1 1 0 0 0-0.19 0.15l-0.03 0.06v0.02l-0.01 0.02v0.05l-0.02 0.08-0.02 0.03-0.02 0.04-0.03 0.03c-0.25 0.28-1.02 0.33-1.91 0.1a4 4 0 0 0-0.92-0.14q-0.19 0-0.34 0.03-0.76 0.16-0.74 1.32l-0.03 0.42q-0.11 0.85-0.85 0.92h-0.03q-0.25 0.03-0.6-0.03l-0.5-0.1c-0.57-0.15-1.47 0.16-2.5 0.74q-0.76 0.43-1.59 1.04c-1.9 1.4-3.86 3.34-4.71 4.8q-0.38 0.64-0.44 1.12-0.03 0.24 0.03 0.43a1 1 0 0 1 0.05 0.28c-0.01 0.37-0.3 0.67-0.76 0.8a2 2 0 0 1-0.55 0.08 2 2 0 0 0-0.74 0.11l-0.16 0.1q-0.4 0.3 0.04 1.04 0.16 0.26 0.28 0.66t0.18 0.88c0.1 0.64 0.1 1.34 0.03 1.96a5 5 0 0 0-0.04 1.06q0.03 0.22 0.09 0.4 0.07 0.15 0.16 0.3l0.06 0.06 0.05 0.06q0.42 0.38 1.4 0.37c1.04 0 2.09 0.3 2.43 0.7q0.04 0.03 0.06 0.08 0.02 0.03 0.03 0.08v0.15c-0.02 1.1-1.27 5.47-2.97 10.36-1.92 5.5-2.93 8.7-3.2 10.77q-0.06 0.39-0.07 0.72c-0.04 0.78 0.06 1.37 0.3 1.86l0.1 0.2q0.1 0.21 0.26 0.39 0.28 0.36 0.69 0.69c0.73 0.6 1.18 1.19 1.3 1.97 0.18 1.1-0.28 2.6-1.52 5.05-0.72 1.4-1.7 3.12-2.95 5.26-2.13 3.64-3.36 6.16-3.7 7.9q-0.12 0.56-0.1 1.02 0 0.61 0.23 1.07 0.12 0.23 0.28 0.42l0.18 0.18q0.4 0.36 0.98 0.6 0.6 0.24 1.4 0.39 0.63 0.12 1.15 0.28a6 6 0 0 1 1.31 0.6q0.19 0.12 0.34 0.26c1.03 0.9 1.26 2.3 0.9 4.54a10 10 0 0 0-0.17 2.31c0.07 0.77 0.34 1.24 0.86 1.55l0.2 0.11 0.23 0.1q0.18 0.06 0.31 0.14c0.55 0.28 0.85 0.69 0.94 1.32q0.1 0.74-0.18 1.96c-0.36 1.65-0.14 3.07 0.55 3.5l0.07 0.04c0.7 0.53 0.85 2.24 0.43 5-0.4 2.72-0.37 3.99 0.44 5.22q0.21 0.3 0.48 0.62a12 12 0 0 0 1.33 1.33c0.58 0.5 1.16 0.81 2.02 0.99 1.55 0.32 4.04 0.18 9.2-0.18l9.78-0.7 2.59 7.83c1.85 5.6 2.66 8.98 2.8 12.5h0.01q0.07 1.73-0.05 3.63-0.05 0.71-0.14 1.15a2 2 0 0 1-0.23 0.64l-0.03 0.04-0.11 0.1q-0.22 0.12-0.47-0.25c-0.44-0.64-0.88-2.31-1.01-4.58-0.14-2.32-1.48-7.4-2.99-11.31-1.3-3.36-2.02-5.13-2.77-6.04-0.75-0.9-1.53-0.94-2.93-0.82-1.63 0.13-5.7 0.35-9.07 0.5l-0.4 0.01a4 4 0 0 0-2.27 0.1l-3.43 0.15-1.74 14.3a312 312 0 0 1-4.57 26.6c-3.57 15.55-5.06 24.9-4.64 32.48q0.13 2.27 0.48 4.37 0.08 0.38 0.17 0.76c0.47 2.54 1.16 5 2.12 7.56 0.73 1.94 1.2 3.3 1.43 4.62q0.12 0.66 0.16 1.33c0.12 1.8-0.13 3.84-0.69 7.39-1 6.45-0.95 8.78 0.31 14.15a53 53 0 0 1 0.9 5.4q-0.1 0.24-0.14 0.96c-0.04 0.88 0.12 1.44 0.37 1.4h0.03c0.17 1.96 0.27 3.86 0.25 5.4-0.09 5.69 0.37 7.63 3.08 12.88a29 29 0 0 1 2.59 6.26q-0.26-0.12-0.32 1.06c-0.04 0.87 0.12 1.43 0.36 1.4l0.07-0.02 0.1-0.07a1 1 0 0 0 0.17-0.29c0.17 1.33 0.22 2.8 0.22 4.66q0 1.39 0.13 2.83 0.12 1.46 0.35 2.91a44 44 0 0 0 2.15 8.18q0.45 1.2 0.97 2.2a9 9 0 0 0 2.12 2.94q0.81 0.66 1.1 0.77l0.07 0.02h0.03l0.05-0.02 0.02-0.03 0.01-0.02a1 1 0 0 0 0-0.2q0-0.08-0.04-0.17-0.09-0.35-0.34-1a38 38 0 0 1-1.61-6c-0.12-0.6-0.12-1.15-0.21-1.75-0.24-1.57-0.5-3.17-0.56-4.6q0.08 0.4 0.21 0.38l0.04-0.01q0.08-0.06 0.17-0.28a3.5 3.5 0 0 0 0.2-1.59q-0.05-0.5-0.2-0.91-0.1-0.25-0.2-0.29-0.12-0.03-0.2 0.26l-0.03 0.17q0.03-0.78 0.12-1.46c0.12-0.88 0.19-1.65 0.17-2.4-0.04-2.22-0.77-4.17-2.69-7.9-2.59-5-3.25-7.76-3.95-16.33-0.46-5.66-1.13-13.1-1.48-16.51-0.55-5.4-0.18-9.68 0.85-10.92q0.3-0.37 0.67-0.37h0.06c0.44 0.15 0.58 1.83 0.31 3.86-0.5 3.75 0.42 9.53 1.98 13.68q0.4 1.05 0.83 1.93 0.45 0.87 0.91 1.55a20 20 0 0 1 1.6 2.55q0.36 0.72 0.33 1v0.01l-0.01 0.04q-0.04 0.19-0.29 0.12a2 2 0 0 1-0.6-0.32q-0.22-0.15-0.5-0.39-0.33-0.27-0.62-0.36a1 1 0 0 0-0.28-0.05q-0.09 0-0.18 0.02a1 1 0 0 0-0.24 0.11l-0.05 0.03-0.2 0.2-0.08 0.13q-0.2 0.31-0.33 0.8l-0.03 0.1-0.1 0.47q-0.09 0.5-0.13 1.1-0.07 1.23 0.02 2.77 0.11 1.56 0.37 3.29a38 38 0 0 0 3.06 10.27c1.58 3.22 5.31 6.41 8.52 7.6a8 8 0 0 0 2.38 0.49 5 5 0 0 1 0.91 0.09c0.85 0.17 1.44 0.57 1.44 1.04v0.05q0 0.06-0.04 0.12l-0.02 0.04q-0.14 0.21-0.53 0.33 0.32-0.26 0.12-0.63c-0.54-0.86-3.53-0.38-3.53 0.57a21 21 0 0 1-4.7-1.3l-0.27-0.08-0.24-0.03h-0.16l-0.05 0.02-0.04 0.01-0.05 0.02-0.12 0.09-0.07 0.07c-0.28 0.38-0.36 1.28-0.32 3.08 0.02 1.17 0.1 2.7 0.2 4.7 0.33 6.21 1 9.46 2.52 12.02 1.92 3.27 1.98 3.96 0.8 9.9q-0.53 2.7-0.9 3.62l-0.11 0.25q-0.1 0.18-0.17 0.22h-0.05l-0.06-0.02-0.02-0.01a1 1 0 0 1-0.14-0.4q-0.27-1.3-0.07-6.52c0.1-2.33-0.1-3.66-0.7-4.36a2 2 0 0 0-0.34-0.3l-0.12-0.07-0.08-0.05-0.2-0.1a4 4 0 0 0-1.19-0.25c-0.43-0.02-0.8 0.05-1 0.2l-0.06 0.05c-0.65 0.66-0.76 3.82-0.44 7.74a71 71 0 0 0 2.04 12.24c1.16 4.22 2.11 8.1 2.11 8.64v0.03l-0.01 0.01c-0.24 0.41-4.09 0.7-10.54 0.82 0.35-0.1 0.47-0.26 0.28-0.45-0.33-0.34-1.2-0.37-1.92-0.08a2 2 0 0 0-0.35 0.18l-0.09 0.08q-0.14 0.2 0.47 0.3h-1.6c0.5-0.07 0.72-0.25 0.49-0.48-0.33-0.34-1.2-0.37-1.92-0.08l-0.31 0.15q-0.22 0.14-0.13 0.24v0.01q0.06 0.06 0.2 0.1l0.2 0.04 0.29 0.04h-4.81c-14.29-0.04-25.11 0.5-35.83 2.11-10.71 1.62-21.31 4.32-35.14 8.61-7.83 2.43-18.1 5.1-22.83 5.92a71 71 0 0 0-8.2 1.83c-1.52 0.46-2.81 1-4.01 1.57-4.17 2.01-6.65 4.84-8.99 9.56-4.09 8.25-5.16 15.9-2.93 25.76 1.34 5.91 3.87 12.63 7.65 20.76a308 308 0 0 1 8.9 21.74c2.18 6.1 9.15 21.58 15.5 34.41a466 466 0 0 1 10.74 22.87c0.7 1.67 0.88 2.62 1.47 4.12 3.9 9.87 5.77 16.99 5.12 21.93a15 15 0 0 1-3.08 7.34c-1.94 2.55-3.07 3.37-5.27 3.54q-0.47 0.03-1.01 0.03a18 18 0 0 0-2.24 0.11q-0.23 0.05-0.39 0.11l-0.2 0.1a0.7 0.7 0 0 0-0.34 0.54q-0.06 0.52 0.21 1.52c0.48 1.91-0.25 3.17-3.7 6.35a61 61 0 0 1-8.74 6.55 37 37 0 0 1-5.8 2.37c-2.62 0.9-5.8 1.85-9.11 2.77-6.64 1.83-13.88 3.48-18.53 4.07-5.6 0.71-8.26 1.11-9.77 1.94a4 4 0 0 0-0.86 0.62c-0.6 0.58-0.97 1.34-1.42 2.41a10 10 0 0 0-0.74 3.28q-0.1 1.7 0.32 3.48a18 18 0 0 0 1.95 4.78c2.28 4 6.13 7.98 10.97 11.36a53 53 0 0 0 20.63 8.65c1.9 0.34 4.16 0.53 6.64 0.59 2.49 0.05 5.2-0.04 8.03-0.26 5.66-0.44 11.74-1.4 17.25-2.81 7.06-1.81 14.7-2.85 26-3.52 14.61-0.88 22.15-2.17 26.28-4.7q1.25-0.79 2.14-1.72c1.98-2.11 2.2-3.1 1.65-7.27-0.22-1.65-0.55-5.3-0.87-9.48l0.02-0.09c0.23-1.51 0.23-3.99 0-5.5q-0.1-0.59-0.17-0.64h-0.03q-0.12 0.12-0.17 1.2l-0.18-2.81c-0.65-10.62-1.5-15.46-3.66-17.5l-0.29-0.26a4 4 0 0 0-0.96-0.58 6 6 0 0 0-1.1-0.34h-0.01q-0.4-0.09-0.83-0.13-0.76-0.07-1.36-0.17-0.61-0.12-1.1-0.3l-0.48-0.24a4 4 0 0 1-1.23-1.17l-0.38-0.59q-0.54-0.95-1.15-2.54c-0.54-1.42-1.15-3.27-1.93-5.68-6.41-19.89-10.68-45.39-10.7-64-0.02-8.45-0.61-16.76-1.5-20.97-2.42-11.4-10.67-27.03-17.94-33.93l-3.05-2.91 7 0.6c4.05 0.34 13.83 2.7 23.21 5.6a303 303 0 0 0 24.27 6.64q3.4 0.72 5.97 1.1 2.56 0.35 4.26 0.33 0.75 0 1.56-0.19c1.63-0.36 3.38-1.2 4.73-2.3a14 14 0 0 1 1.76-1.16 58 58 0 0 1 8.74-3.97c4.13-1.47 8.06-3.1 8.75-3.63 2.86-2.19 24.36-30.84 27.71-36.94 2-3.64 5.38-11.55 7.52-17.59 2.94-8.32 5.48-14.41 8.52-19.93 0.42-0.74 0.94-1.45 1.38-2.17 2.76-4.66 5.9-9.1 10.2-14.3l4.72-5.72-3.49-8.08a111 111 0 0 1-5.5-17.78c-0.74-3.56-1.2-6.2-1.44-9.39q0.1 0.04 0.23-0.08c0.34-0.33 0.37-1.2 0.08-1.92q-0.28-0.68-0.45-0.37l-0.03-0.84q0.15 0.37 0.4 0.13c0.34-0.33 0.37-1.2 0.08-1.92q-0.3-0.74-0.47-0.3l-0.05 0.14c-0.03-2.69 0.02-5.93 0.13-10.16q0.08 0.69 0.2 0.67 0.02 0 0.05-0.03 0.07-0.08 0.15-0.38a7 7 0 0 0 0.14-2.68q-0.05-0.45-0.14-0.82t-0.18-0.4h-0.01q-0.04-0.03-0.1 0.07v0.04l0.08-2.98c0.26-8.05 0.35-13.6 0.27-17.39-0.07-2.84-0.23-4.69-0.5-5.86l-0.04-0.15a7 7 0 0 0-0.27-0.8l-1.22-2.7-3.96 3.63 0.37-0.46q0.9-1.13 0.88-1.24l-0.01-0.01q-0.13-0.02-1.25 0.87c-0.96 0.76-1.75 1.55-1.75 1.75q0 0.5 0.38 0.35l-1.16 1.06c-9.22 8.45-19.55 12.83-29.28 12.74q-1.34-0.02-2.64-0.14a30 30 0 0 1-10.1-2.8 25 25 0 0 1-3.4-1.84q-0.16-0.12-0.26-0.22l-0.1-0.12-0.03-0.07 0.01-0.06v-0.01l0.03-0.02 0.01-0.01 0.02-0.01h0.02l0.22-0.04q0.94-0.03 4.74 1.1a33 33 0 0 0 9.77 1.42c5 0 10.13-1.05 15.13-3.08a49 49 0 0 0 9.74-5.32q2.35-1.65 4.59-3.6a41 41 0 0 1 5.93-4.38l0.14-0.13a1 1 0 0 0 0.16-0.26 1 1 0 0 0 0.02-0.22l-0.06-0.23a2 2 0 0 0-0.22-0.38q-0.3-0.41-0.9-1.06-0.34-0.38-0.77-1.03t-0.87-1.45a29 29 0 0 1-1.58-3.35 11 11 0 0 1-0.73-2.32q0-0.1 0.04-0.11h0.02q0.03 0 0.08 0.06 0.1 0.1 0.3 0.41c0.8 1.3 3.48 4.18 6.94 7.59a244 244 0 0 0 13.1 12.01q-0.15 0.09 0.27 1.2c0.32 0.82 0.77 1.35 1.09 1.3q0.04 0 0.1-0.03l0.06-0.04c0.22-0.23 0.12-0.71-0.21-1.22 2.42 2.28 3.55 3.7 3.23 3.88l-0.04 0.02h-0.02c-0.39 0.05-1.81-0.78-4.37-2.74-3.34-2.54-5.3-4.28-6.48-4.29q-0.2 0-0.36 0.06-0.38 0.14-0.64 0.64l-0.15 0.32q-0.13 0.36-0.24 0.84c-0.36 1.63-0.5 4.4-0.65 8.67q-0.03-0.45-0.2-0.9-0.23-0.56-0.38-0.45h-0.01q-0.17 0.15-0.21 1.06a5 5 0 0 0 0.06 0.96q0.08 0.35 0.22 0.43h0.02l0.06 0.01 0.07-0.02 0.1-0.07 0.04-0.06 0.05-0.06q0.13-0.21 0.16-0.53l-0.07 2.08-0.1-0.35q-0.24-0.56-0.4-0.45-0.17 0.15-0.21 1.06c-0.04 0.87 0.12 1.43 0.36 1.4l0.07-0.02 0.1-0.07q0.08-0.09 0.14-0.22l-0.17 5.07q-0.42-0.74-0.5 0.84c-0.04 0.86 0.12 1.42 0.36 1.4h0.02l0.05-0.02c-0.2 7.43-0.15 13.62 0.17 19.01q-0.23-0.56-0.38-0.45h-0.01q-0.17 0.15-0.21 1.06c-0.04 0.87 0.12 1.43 0.36 1.4l0.07-0.02 0.1-0.07a1 1 0 0 0 0.18-0.32c0.36 4.83 0.97 9.03 1.86 12.92q0.17 0.63 0.35 1.23a70 70 0 0 0 3.26 9.94c3.55 8.54 3.83 8.57 7.5 0.89q1.05-2.25 1.69-3.5 0.03 0.09 0.1 0.18 0.54 0.9 0.8 0.87c-0.96 5.55-4.67 12.42-10.2 18.88a123 123 0 0 0-6.43 8.12c-5.67 7.89-9.36 15.6-13.68 27.81-6.62 18.72-9.56 23.36-33.55 52.85q-0.52 0.63-1.02 1.18c-1 1.09-2.03 1.94-3.36 2.75-1.8 1.07-4.14 2.05-7.78 3.37-9.48 3.43-12.74 5.77-18.98 13.6-2.37 2.98-5 6.99-6.92 10.36a45 45 0 0 0-2.23 4.36 9 9 0 0 0-0.55 1.7q-0.05 0.35 0.07 0.47l0.17 0.12a6.4 6.4 0 0 0 2.9 0.48 4 4 0 0 0 1.7-0.64c2.14-1.32 4.97-4.66 8.82-10.38 1.2-1.77 2.36-3.14 2.97-3.55q0.16-0.12 0.27-0.13h0.03l0.04 0.01 0.04 0.02q0.07 0.09 0.06 0.3l-0.03 0.26c-0.18 0.86-1.13 2.83-2.23 4.98a129 129 0 0 1-9.64 15.88c-2.65 3.6-4.82 6.87-4.82 7.27 0 0.22 0.2 0.58 0.5 0.97q0.13 0.17 0.29 0.34a7 7 0 0 0 0.7 0.67 3.5 3.5 0 0 0 2.16 0.85h0.01q0.6 0.01 1.23-0.18 1.91-0.57 4.4-3.02a44 44 0 0 0 3.63-4.13c2.81-3.58 5.33-6.51 5.6-6.51l0.2 0.02 0.1 0.04h0.01l0.1 0.05q0.08 0.07 0.13 0.17l0.04 0.1q0.03 0.15 0.02 0.35 0 0.24-0.1 0.54c-0.26 0.9-1 2.24-2.15 3.9q-1.2 1.74-3 3.88l-5.11 6.15 2 2c2.14 2.14 4.06 2.04 7.48-1.1a55 55 0 0 0 3.98-4.17c2.98-3.38 5.16-5.46 6.06-5.88a1 1 0 0 1 0.28-0.07h0.06q0.39 0.1-0.51 1.77c-0.53 0.96-2.6 3.47-4.6 5.57q-0.78 0.81-1.36 1.51t-0.97 1.28-0.57 1.06q-0.1 0.24-0.15 0.46l-0.03 0.2q-0.03 0.32 0.05 0.56 0.21 0.68 1.2 1.03 0.25 0.08 0.55 0.16a11 11 0 0 0 2.46 0.26q0.26 0 0.5-0.05c0.66-0.1 1.3-0.36 2.03-0.89q0.28-0.2 0.58-0.44c1.6-1.33 3.75-3.81 7.45-8.29 0.76-0.91 1.44-1.59 1.94-1.95a2 2 0 0 1 0.48-0.26l0.16-0.01 0.06 0.01 0.05 0.04 0.02 0.02 0.04 0.12v0.07q0 0.07-0.02 0.16c-0.15 0.86-1.41 2.88-2.94 4.67a22 22 0 0 0-2.6 3.42q-0.13 0.25-0.19 0.46l-0.01 0.04a1 1 0 0 0-0.02 0.43q0.03 0.14 0.13 0.23l0.04 0.04q0.15 0.13 0.41 0.2 0.53 0.14 1.5 0.14 0.88 0.01 1.63-0.17a5 5 0 0 0 1-0.38h0.01c1.2-0.61 2.48-1.84 4.44-4.2a172 172 0 0 0 4.15-5.25c3.26-4.26 5.21-7.05 6.75-10.24 0.77-1.59 1.44-3.28 2.11-5.3 0.68-2.03 1.36-4.39 2.17-7.3 0.86-3.13 1.9-6.02 3.3-8.95 4.18-8.79 11.6-17.89 27.3-34.46q-0.13 0.24 0 0.25 0.05 0 0.14-0.05c0.45-0.24 1.57-1.25 2.7-2.45 0.65-0.69 1.18-1.31 1.51-1.77q0.44-0.59 0.38-0.71v-0.01h-0.02l-0.02-0.01-0.16 0.06q-0.1 0.05-0.24 0.15l0.55-0.59q0 0.33 0.17 0.38h0.11l0.05-0.01q0.22-0.06 0.55-0.36 0.51-0.45 1.25-1.38 0.9-1.13 0.88-1.24l-0.01-0.01q-0.13-0.02-1.25 0.87l-0.52 0.42c3.26-3.5 5.01-5.83 7.44-8.66 7.3-8.5 12.55-15.47 17.39-24.13 3.38-6.05 7.86-13.5 9.95-16.56a46 46 0 0 0 2.72-4.44c2.21-4.19 2.97-7.83 2.75-12.69l0.06-0.03 0.03-0.02 0.03-0.03c0.34-0.33 0.37-1.2 0.08-1.92q-0.15-0.39-0.28-0.45h-0.09q-0.15-1.8-0.15-3.96c0.03 0.74 0.14 1.16 0.29 1.14h0.02q0.1-0.05 0.2-0.29a3.5 3.5 0 0 0 0.19-1.59q-0.05-0.5-0.2-0.91l-0.12-0.23-0.04-0.04-0.02-0.01h-0.02c-0.13-0.06-0.23 0.25-0.28 0.83l0.06-1.62q0.09 0.15 0.21 0.14 0.05 0 0.1-0.04l0.05-0.05c0.34-0.33 0.37-1.2 0.08-1.92a1 1 0 0 0-0.24-0.43l-0.05-0.03c0.55-7.25 2.15-16.42 4.67-26.78 3.38-13.8 3.74-23.14 1.45-37.07-0.79-4.8-1.24-8.2-1.37-11.08q0.11 0.41 0.3 0.4l0.05-0.01 0.04-0.02 0.07-0.06c0.34-0.33 0.37-1.2 0.08-1.92q-0.16-0.37-0.27-0.45h-0.02l-0.01-0.01q-0.15-0.04-0.23 0.36l-0.04 0.25c0-3.35 0.5-6.17 1.51-10.13q0.8-3.09 1.1-6.32a50.42 50.42 0 0 0-2-19.24 46 46 0 0 0-2.21-5.82 34 34 0 0 0-6.37-9.48 22 22 0 0 0-4.03-3.24l-3.38-2.1 2.61 3.95a26 26 0 0 1 2.76 5.77q0.31 0.94 0.44 1.67c0.2 1.28 0.32 2.04 0.22 2.2v0.01h-0.01l-0.04 0.02q-0.05 0-0.13-0.1l-0.1-0.12c-0.33-0.46-0.93-1.64-1.92-3.6a39 39 0 0 0-8.98-11.3q-0.76-0.64-1.46-1.06l-0.37-0.2q-0.15-0.1-0.3-0.17-0.3-0.15-0.6-0.25c-1.01-0.32-1.85-0.97-1.85-1.45q0-0.04 0.02-0.08 0-0.02 0.02-0.04l0.03-0.03 0.13-0.08q0.25-0.1 0.76-0.08c0.58 0.03 1.4 0.18 2.29 0.46 2.8 0.87 4.48 1.42 5.46 1.62q0.6 0.13 0.88 0.08 0.33-0.06 0.33-0.38c0-0.32-0.18-0.85-0.4-1.57q-0.62-2.1-1.55-4.14a34 34 0 0 0-2.23-4.06 42 42 0 0 0-2.92-4v-0.01a55 55 0 0 0-3.69-4.03q0.36 0.33 0.5 0.34l0.13-0.01c0.62-0.1 0.05-0.9-1.51-2.12a10 10 0 0 0-1.18-0.86l-0.03-0.01h-0.04q-0.02 0.13 0.87 1.25 0.5 0.63 0.94 1.1a91 91 0 0 0-8.31-7.15 79 79 0 0 1-6.26-5.24 28 28 0 0 1-3.92-4.51 22 22 0 0 1-2.73-5.76 31.4 31.4 0 0 1-1.15-15.44c0.93-5.47 3.22-11.55 7-19.05 5.04-9.97 7.12-21.14 5.59-29.95a47 47 0 0 0-1.24-5.31c-0.13-0.46-0.32-0.85-0.47-1.28a32 32 0 0 0-4.88-9.46 26 26 0 0 0-1.45-1.7c-1.54-1.65-2.95-3.86-3.14-4.92a2.3 2.3 0 0 0-0.73-1.3v-0.01a3 3 0 0 0-0.55-0.39 3.4 3.4 0 0 0-1.47-0.4 5.4 5.4 0 0 1-2.54-0.88q-0.68-0.43-1.07-0.94a5 5 0 0 0-1.55-1.35 4 4 0 0 0-0.81-0.31l-0.24-0.03c-0.76-0.02-3.6-1.12-6.32-2.45a39 39 0 0 0-3.58-1.55l-0.42-0.14q-0.5-0.18-0.86-0.27l-0.14-0.04-0.32-0.05zm-100.25 13.07c-0.33 0-0.57 0.4-0.57 1.02 0 1.7 0.32 1.84 1.13 0.53 0.31-0.51 0.2-1.17-0.28-1.46a0.5 0.5 0 0 0-0.29-0.09m124.11 1.47m0 0q-0.02 0.13 0.87 1.25c0.76 0.96 1.55 1.75 1.75 1.75l0.14-0.01c0.62-0.1 0.05-0.9-1.51-2.12a10 10 0 0 0-1.18-0.86l-0.03-0.01zm-76.1 8.13c-0.34-0.01-0.74 0.05-1.1 0.2-0.8 0.32-0.56 0.55 0.6 0.6 0.66 0.03 1.14-0.05 1.33-0.2l0.02-0.02 0.06-0.09q0.02-0.1-0.1-0.21c-0.16-0.17-0.46-0.26-0.8-0.28m-66.9 9.87m0 0q-0.02 0.13 0.87 1.25c0.76 0.96 1.55 1.75 1.75 1.75l0.14-0.01c0.62-0.1 0.05-0.9-1.51-2.12a10 10 0 0 0-1.18-0.86l-0.03-0.01zm-219.03 44.01q-0.16 0.03-1.23 0.88c-0.96 0.76-1.75 1.55-1.75 1.75q0 0.38 0.23 0.38h0.05l0.05-0.01q0.22-0.06 0.55-0.36 0.51-0.45 1.25-1.38 0.9-1.13 0.88-1.24l-0.01-0.02zm296.02 26.13c-0.45 0-0.9 0.07-1.25 0.2-0.69 0.29-0.12 0.51 1.25 0.51s1.94-0.22 1.25-0.5c-0.34-0.14-0.8-0.2-1.25-0.2m102.02 42.87h-0.01v0.01h-0.01q-0.02 0.13 0.87 1.25c0.76 0.96 1.55 1.75 1.75 1.75l0.14-0.01c0.62-0.1 0.05-0.9-1.51-2.12a10 10 0 0 0-1.18-0.86l-0.03-0.01zm11.33 25.36q-0.21 0.02-0.26 1.07c-0.04 0.87 0.12 1.43 0.36 1.4l0.07-0.02 0.1-0.07c0.33-0.33 0.36-1.2 0.07-1.92q-0.2-0.48-0.34-0.46m-130.9 2.44q-0.03 0-0.08 0.11l-0.04 0.1q-0.11 0.41-0.12 1.5c-0.02 1.28 0.1 2.04 0.28 2l0.04-0.01q0.06-0.04 0.14-0.22c0.27-0.68 0.29-2.03 0.03-3q-0.11-0.44-0.22-0.48zm130.9 2.56q-0.21 0.02-0.26 1.07c-0.04 0.87 0.12 1.43 0.36 1.4l0.07-0.02 0.1-0.07c0.33-0.33 0.36-1.2 0.07-1.92q-0.2-0.48-0.34-0.46m-63.33 11.64m0 0q-0.02 0.13 0.87 1.25c0.76 0.96 1.55 1.75 1.75 1.75l0.14-0.01c0.62-0.1 0.05-0.9-1.51-2.12a10 10 0 0 0-1.18-0.86l-0.03-0.01zm3.45 3.38a1 1 0 0 0-0.85 0.45q-0.12 0.21-0.07 0.4l0.01 0.04c0.1 0.24 0.47 0.4 1 0.4 1.68 0 1.83-0.3 0.52-1.12q-0.3-0.18-0.61-0.17m7.03 14.8c-0.14 0.01-0.23 0.85-0.24 2.33 0 1.67 0.1 2.66 0.27 2.62l0.02-0.01q0.07-0.05 0.15-0.35c0.25-0.95 0.26-2.75 0.02-4q-0.1-0.54-0.2-0.58zm-2.15 2.18q-0.21 0.02-0.26 1.07c-0.04 0.87 0.12 1.43 0.36 1.4l0.07-0.02 0.1-0.07c0.33-0.33 0.36-1.2 0.07-1.92q-0.2-0.48-0.34-0.46m-66.06 2.03a0.4 0.4 0 0 0-0.19 0.06c-0.5 0.3-0.67 1.46-0.38 2.56q0.52 1.96 0.88 1.91h0.01q0.39-0.1 0.4-2.47c0-1.23-0.31-2.07-0.72-2.06m66.06 0.97q-0.21 0.02-0.26 1.07c-0.04 0.87 0.12 1.43 0.36 1.4l0.07-0.02 0.1-0.07c0.33-0.33 0.36-1.2 0.07-1.92q-0.2-0.48-0.34-0.46m-39.42 0.77c-0.35-0.01-0.75 0.05-1.1 0.2-0.8 0.32-0.57 0.55 0.6 0.6 0.65 0.03 1.13-0.05 1.32-0.2l0.02-0.02q0.13-0.13-0.03-0.3c-0.17-0.17-0.47-0.26-0.81-0.28m39.42 2.23q-0.21 0.02-0.26 1.07c-0.04 0.87 0.12 1.43 0.36 1.4l0.07-0.02 0.1-0.07c0.33-0.33 0.36-1.2 0.07-1.92q-0.2-0.48-0.34-0.46m55.15 10.82c-0.14 0.01-0.23 0.85-0.24 2.33 0 1.67 0.1 2.66 0.27 2.62l0.02-0.01q0.07-0.05 0.15-0.35c0.25-0.95 0.26-2.75 0.02-4q-0.1-0.54-0.2-0.58zm-626.57 5.95c-0.35-0.01-0.75 0.05-1.1 0.2-0.8 0.32-0.57 0.55 0.6 0.6 0.65 0.03 1.13-0.05 1.32-0.2l0.02-0.02 0.06-0.09q0.02-0.1-0.1-0.21c-0.16-0.17-0.46-0.26-0.8-0.28m506.53 0.67c-0.14 0.02-0.24 0.63-0.25 1.71-0.02 1.28 0.1 2.04 0.28 2l0.04-0.01q0.06-0.04 0.14-0.22c0.27-0.68 0.29-2.03 0.03-3q-0.11-0.44-0.22-0.48zm64.05 0.43c-0.13 0.04-0.23 1.06-0.23 2.78 0 1.8 0.1 2.82 0.25 2.78h0.01v-0.01l0.02-0.01q0.07-0.07 0.16-0.51a13 13 0 0 0 0.13-3.45 10 10 0 0 0-0.13-1.05q-0.09-0.44-0.16-0.51h-0.01v-0.01h-0.04m-581.52 5.75q-0.16 0-1.23 0.87c-0.96 0.76-1.75 1.55-1.75 1.75q0 0.38 0.23 0.38h0.05l0.05-0.01q0.21-0.06 0.55-0.36 0.51-0.45 1.25-1.38 0.9-1.13 0.88-1.24l-0.02-0.01zm518.5 16.84c-0.15 0.03-0.25 0.82-0.25 2.16 0 1.4 0.11 2.2 0.27 2.16l0.03-0.02a1 1 0 0 0 0.16-0.39 7 7 0 0 0 0.14-2.68q-0.05-0.45-0.14-0.82-0.1-0.34-0.17-0.4zm6.97 6.95c-0.14 0.02-0.24 0.63-0.25 1.71-0.02 1.28 0.1 2.04 0.28 2l0.04-0.01q0.06-0.04 0.14-0.22c0.27-0.68 0.29-2.03 0.03-3q-0.11-0.44-0.22-0.48zm-495.47 1.2q-0.16 0.03-1.23 0.88c-0.96 0.76-1.75 1.55-1.75 1.75q0 0.38 0.23 0.38h0.05l0.05-0.01q0.21-0.06 0.55-0.36 0.51-0.45 1.25-1.38 0.9-1.13 0.88-1.24l-0.02-0.01zm-12.06 6.13c-0.35-0.01-0.75 0.05-1.1 0.2-0.8 0.32-0.57 0.55 0.6 0.6 0.65 0.03 1.13-0.05 1.32-0.2l0.02-0.02 0.06-0.09q0.02-0.1-0.1-0.21c-0.16-0.17-0.46-0.26-0.8-0.28m490.95 39c-0.73 0-1.49 0.05-2.1 0.17a3 3 0 0 0-0.54 0.15l-0.06 0.06v0.03h0.01l0.02 0.02c0.19 0.12 1 0.2 2.3 0.2 1.58 0 2.55-0.1 2.62-0.24v-0.04q-0.05-0.07-0.36-0.16a8 8 0 0 0-1.9-0.2m-13.95 0c-0.35-0.01-0.75 0.05-1.1 0.2q-0.45 0.18-0.47 0.32 0 0.23 1.07 0.28c0.65 0.03 1.13-0.05 1.32-0.2l0.02-0.02 0.06-0.09q0.02-0.1-0.1-0.21c-0.16-0.17-0.46-0.26-0.8-0.28m3.96 0c-0.54 0-1.12 0.06-1.61 0.19-0.97 0.25-0.42 0.47 1.23 0.5 1.16 0 1.9-0.09 2-0.24v-0.03h0.01q0-0.1-0.24-0.2a4 4 0 0 0-1.39-0.21m175.51 155.1a14 14 0 0 0-1.88 1.78c-0.7 0.78-1.2 1.46-1.34 1.79q-1.02 0.82-2.31 1.79a88 88 0 0 1-19.62 10.63q-3.47 1.36-6.73 2.25c-3.05 0.84-9.84 1.7-15.62 2q0.11-0.2 0.12-0.46v-0.18c-0.04-0.42-0.2-0.75-0.38-0.81q6.5-1.14 12.48-2.74a111 111 0 0 0 21.7-8.16 81 81 0 0 0 9.02-5.34q1.94-1.32 3.07-1.94 0.97-0.53 1.38-0.6h0.01zm-48 18.82c-0.25 0.13-0.62 0.5-0.89 0.95a1 1 0 0 0-0.16 0.54l-10.84 0.42 9.5-1.51zm120.02 6.37c0.32 0 0.76 0.26 1.44 0.79q1.03 0.81 1.14 0.8l0.01-0.01v-0.02a7 7 0 0 0-1.05-1.45q0.3 0.25 0.66 0.57c1.31 1.24 2.39 2.84 2.39 3.57v0.2q-0.03 0.29-0.12 0.5c-0.37 0.83-1.48 0.79-2.62 0.04l-0.38-0.27q-0.78-0.6-1.44-1.6a8 8 0 0 1-0.96-1.9q0.08-0.15 0.2-0.43c0.2-0.53 0.41-0.8 0.73-0.8m-124.08-177.84-4.4 8.47c-5.79 11.15-14.08 22.04-28.97 37.97a8 8 0 0 0-1.21 0.87c-0.96 0.76-1.75 1.55-1.75 1.75q0 0.3 0.14 0.37l-0.22 0.23-0.19 0.2q0.2-0.31 0.16-0.4l-0.01-0.01-0.03-0.01c-0.28 0-1.56 1.12-2.85 2.5-1.21 1.29-2.02 2.36-1.89 2.49l0.04 0.01h0.01l0.1-0.03q0.2-0.09 0.6-0.42c-11.4 12.33-21.1 24.18-23.59 28.95-0.57 1.1-2 5.52-3.17 9.81-2.7 9.9-5.7 15.82-12.06 23.73a38 38 0 0 0-4.63 7.07q-0.27 0.6-0.36 1l-0.01 0.06-0.03 0.24c0.02 3.78 11.41 46.03 14.57 54.03q0.67 1.69 1.51 3.24c3.92 7.25 10.59 12.25 18.16 13.45 6.42 1.01 12.8-0.25 25.75-5.1 5.78-2.16 18.28-5.99 27.8-8.5a890 890 0 0 0 35.9-10.54c25.3-8.1 39-11.07 54.2-11.74l12.4-0.55-0.66 2.6q-0.12 0.45-0.18 0.8v0.05q-0.1 0.5-0.06 0.85 0.05 0.47 0.45 0.76 0.1 0.08 0.24 0.14l0.28 0.12q0.78 0.28 2.37 0.55c3.19 0.56 6.63 2.95 8.95 5.84q0.7 0.86 1.25 1.77 0.27 0.45 0.5 0.92 0.24 0.45 0.42 0.92 0.37 0.92 0.52 1.82a23 23 0 0 0 2.66 7.02c0.79 1.29 1.35 2.1 2.05 2.52q0.18 0.1 0.37 0.18 0.56 0.22 1.35 0.15a9 9 0 0 0 1.22-0.19c0.92-0.2 2.08-0.55 3.58-1.02a2.5 2.5 0 0 1 1.5-0.04c1.08 0.35 2.25 1.63 4.35 4.5a31 31 0 0 1 6.17 14.87q0.37 2.76 0.37 5.9c0 5.09 0.45 7.75 2.1 9.75l0.48 0.53q0.51 0.51 1.15 0.99 0.65 0.47 1.44 0.95c1.6 0.98 3.4 1.35 5.14 1.16a8 8 0 0 0 1.48-0.29 8.62 8.62 0 0 0 4.38-3.04c2.07-2.75 5.33-13.59 7.46-24.8a70 70 0 0 0 1.2-9.3c0.48-8.9-1.31-17.35-6.2-32.36-3.03-9.25-6.94-21.77-8.7-27.82-2.45-8.41-4.1-13.22-5.71-15.8a8 8 0 0 0-1.07-1.42 5 5 0 0 0-1.1-0.84 3.5 3.5 0 0 0-1.82-0.4c-1.5 0-3.63 0.7-4.73 1.54-2.55 1.92-16 5.99-24.7 7.47-1.6 0.27-2.82 0.49-3.77 0.71q-0.7 0.17-1.23 0.35-0.53 0.19-0.9 0.4a3 3 0 0 0-0.93 0.82q-0.35 0.48-0.62 1.19-0.19 0.48-0.38 1.08c-0.6 1.79-1.81 3.65-2.78 4.29l-0.15 0.09c-3.28 1.75-26.36 5.92-39.6 7.14-2.1 0.2-3.94 0.35-5.62 0.47q0.01-0.09-0.1-0.2c-0.32-0.33-1.19-0.36-1.9-0.07q-0.24 0.1-0.36 0.17l-0.1 0.1q-0.04 0.08 0.03 0.14c-1.1 0.05-2.11 0-3.15 0l0.68-0.01q1.11-0.07 1.2-0.21v-0.04q-0.05-0.07-0.36-0.16c-0.95-0.25-2.75-0.26-4-0.02q-0.54 0.1-0.58 0.2l-0.01 0.02 0.01 0.02c0.1 0.11 0.8 0.18 1.88 0.2-1.1 0-2.2 0.06-3.35 0q0.21-0.13 0.02-0.33c-0.33-0.34-1.2-0.37-1.92-0.08q-0.37 0.16-0.45 0.27c-2.7-0.2-5.77-0.52-9.7-0.99-13.52-1.59-22.25-1.48-31.52 1.33a66 66 0 0 0-5.66 2.02c-3.88 1.57-8 3.6-12.73 6.17l-7.57 4.11-0.37 2-0.13-0.42c-0.32-0.8-0.55-0.56-0.6 0.6-0.04 0.87 0.12 1.42 0.36 1.41h0.03l0.06-0.03-0.57 3.08a49 49 0 0 1-1.94 7.7l-0.21 0.43q-0.3 0.44-0.44 0.24l-0.05-0.08-0.08-0.28-0.04-0.3c-0.17-1.58 0.2-5.6 0.88-10.23a1 1 0 0 0 0.92 0.65c0.55 0 1-0.2 1-0.44s-0.45-0.72-1-1.06q-0.46-0.27-0.75-0.1l-0.04 0.02c0.58-3.77 1.35-7.86 2.21-11.32 3.7-14.87 5.34-26.46 5.27-38.4v-0.01c-0.02-3.98-0.24-8-0.63-12.2l-1.12-12 6.35-6.51a65 65 0 0 0 9.08-11.4c3.97-6.48 6.29-13.5 7.7-22.55 0.31-2.05 0.48-4.36 0.5-6.79a71 71 0 0 0-0.37-7.57 69 69 0 0 0-3.06-14.78zm-27.35 39.44q-0.14 0-1.22 0.87c-0.96 0.76-1.75 1.55-1.75 1.75q0 0.38 0.23 0.38h0.05l0.05-0.01q0.22-0.06 0.55-0.36 0.51-0.45 1.25-1.38 0.9-1.13 0.88-1.24l-0.01-0.01zm-15.12 16c-0.28 0-1.56 1.12-2.85 2.5-1.21 1.29-2.02 2.36-1.89 2.49l0.04 0.01h0.01c0.3-0.03 1.57-1.15 2.84-2.5a17 17 0 0 0 1.86-2.3l0.03-0.09 0.01-0.06v-0.03h-0.01v-0.02h-0.02zm-133.82 8.12c-0.93 0.01-2 1.1-1.49 1.95 0.32 0.51 0.8 0.93 1.08 0.93h0.02l0.07-0.02 0.01-0.01c0.15-0.11 0.07-0.5-0.22-0.97q-0.29-0.48-0.03-0.77l0.06-0.06q0.2-0.16 0.58-0.17c0.67 0 0.95-0.27 0.62-0.6a1 1 0 0 0-0.7-0.28m166.95 2.87q-0.16 0.03-1.23 0.88c-0.96 0.76-1.75 1.55-1.75 1.75q0 0.38 0.23 0.38h0.05l0.05-0.01q0.22-0.06 0.55-0.36 0.51-0.45 1.25-1.38 0.9-1.13 0.88-1.24l-0.01-0.01zm-794.19 7.01c-0.3 0.03-1.32 0.92-2.3 2-1 1.1-1.59 2-1.31 2h0.01c0.3-0.03 1.32-0.92 2.3-2 0.62-0.69 1.09-1.3 1.28-1.66l0.1-0.22v-0.08h-0.01q-0.01-0.04-0.06-0.04zm785.54 1.35q-0.21 0.02-0.26 1.07c-0.04 0.87 0.12 1.43 0.36 1.4l0.07-0.02 0.1-0.07c0.33-0.33 0.36-1.2 0.07-1.92q-0.2-0.48-0.34-0.46m-822.54 15.65c-0.3 0.03-1.32 0.92-2.3 2-1 1.1-1.59 2-1.31 2h0.01c0.3-0.03 1.32-0.92 2.3-2 0.62-0.69 1.09-1.3 1.28-1.66l0.1-0.22v-0.08h-0.01q-0.01-0.04-0.06-0.04zm21.12 9.12c-0.35-0.01-0.75 0.05-1.1 0.2q-0.6 0.23-0.45 0.4 0.16 0.16 1.05 0.2c0.65 0.03 1.13-0.05 1.32-0.2l0.02-0.02 0.06-0.09q0.02-0.1-0.1-0.21c-0.16-0.17-0.46-0.26-0.8-0.28m15.58 10.38 3.45 3.75c3.2 3.49 4.05 4.21 4.05 3.45 0-0.17-1.69-1.86-3.75-3.75zm646.01 1.05c-0.13 0.07-0.22 1.12-0.22 2.95-0.01 2 0.09 3.2 0.23 3.24h0.01q0.03 0 0.04-0.03 0.06-0.07 0.13-0.45c0.24-1.23 0.25-3.48 0.02-5q-0.1-0.61-0.18-0.7h-0.03m-549.63 6.56c-1.09 0-2.21 0.05-3.11 0.17q-0.79 0.09-0.83 0.18v0.02c0.09 0.12 1.37 0.2 3.56 0.2 2.22 0.01 3.61-0.07 3.83-0.19l0.02-0.02v-0.02q-0.04-0.08-0.58-0.17c-0.75-0.1-1.8-0.17-2.9-0.17m35.12 0a13 13 0 0 0-2.6 0.27l-0.15 0.06-0.01 0.01c-0.17 0.16 0.87 0.28 2.76 0.28 1.24 0 2.11-0.05 2.52-0.13q0.3-0.06 0.25-0.13t-0.52-0.18a13 13 0 0 0-2.25-0.18m-27.12 0.02a6 6 0 0 0-1.9 0.27l-0.16 0.09c-0.18 0.17 0.44 0.3 1.68 0.31 1.16 0.02 1.9-0.08 2-0.23v-0.03h0.01q0-0.1-0.24-0.2a4 4 0 0 0-1.39-0.21m33.12 0c-0.45 0-0.9 0.07-1.25 0.2l-0.2 0.1-0.06 0.06v0.01c-0.17 0.2 0.41 0.34 1.51 0.34 1.38 0 1.94-0.23 1.25-0.5-0.34-0.14-0.8-0.2-1.25-0.2m-25.71 0.13q-1.34 0.09-1.42 0.16v0.02h0.01l0.06 0.02 0.5 0.06c0.94 0.06 3.04 0.1 6.06 0.1 4.16 0 6.69-0.07 6.93-0.18l0.02-0.01v-0.02q-0.1-0.07-1.16-0.15c-2.87-0.2-7.82-0.2-11 0m-158.28 0.82a28 28 0 0 0-3.77 0.25l-0.2 0.06h-0.02v0.01l-0.02 0.01v0.02c0.1 0.13 1.55 0.22 4.01 0.22 1.79 0 3.05-0.04 3.64-0.12q0.33-0.04 0.37-0.1v-0.01l-0.01-0.02q-0.08-0.07-0.75-0.15c-0.9-0.11-2.07-0.17-3.25-0.17m-90 0c-0.82 0-1.63 0.07-2.25 0.18-1.24 0.24-0.22 0.44 2.25 0.44 1.24 0 2.11-0.05 2.52-0.13q0.3-0.06 0.25-0.13t-0.52-0.18a13 13 0 0 0-2.25-0.18m97.92 0.01a3 3 0 0 0-1.36 0.31q-0.24 0.14-0.21 0.24 0.08 0.2 1.07 0.25c0.65 0.03 1.13-0.05 1.32-0.2l0.02-0.02 0.06-0.09q0.02-0.1-0.1-0.21c-0.16-0.17-0.46-0.26-0.8-0.28m-81.67 0.13c-1.75 0.05-2.7 0.09-2.94 0.12l-0.03 0.01h-0.02v0.01c0.18 0.1 5.93 0.18 15.74 0.18s15.56-0.07 15.74-0.17v-0.01c-0.08-0.04-1.05-0.09-2.99-0.14-7.01-0.17-18.49-0.17-25.5 0m45 0a15 15 0 0 0-1.81 0.15v0.01c0.18 0.11 3.67 0.19 9.56 0.19 4.26 0 7.27-0.04 8.67-0.1q0.75-0.03 0.88-0.08h0.01v-0.01q-0.07-0.07-1.81-0.15c-4.26-0.19-11.24-0.19-15.5 0m721.2 0.54q-0.14 0.02-0.2 0.68-0.05 0.41-0.05 1.03c-0.02 1.28 0.1 2.04 0.28 2l0.04-0.01q0.06-0.04 0.14-0.22c0.27-0.68 0.29-2.03 0.03-3q-0.11-0.44-0.22-0.48zm62.6 3.21c-0.5 0-1.16 0.38-1.45 0.83-0.28 0.46 0.14 0.84 0.94 0.84s1.46-0.38 1.46-0.84-0.42-0.83-0.94-0.83m-695.55 0.5 1.9 2.25c1.05 1.24 2.06 2.25 2.25 2.25l0.14-0.01c0.59-0.1-0.06-0.9-2.04-2.58zm45.84 0.85q-0.21 0.02-0.26 1.07c-0.04 0.87 0.12 1.43 0.36 1.4l0.07-0.02 0.1-0.07c0.33-0.33 0.36-1.2 0.07-1.92q-0.2-0.48-0.34-0.46m-100.36 6.64q-0.16 0.03-1.23 0.88c-0.96 0.76-1.75 1.55-1.75 1.75q0 0.38 0.23 0.38h0.05l0.05-0.01q0.21-0.06 0.55-0.36 0.51-0.45 1.25-1.38 0.9-1.13 0.88-1.24l-0.02-0.01zm-7.98 3.13a7 7 0 0 0-1.75 0.19c-0.96 0.25-0.18 0.46 1.75 0.46q0.73 0 1.22-0.04 1-0.07 0.94-0.24-0.04-0.07-0.41-0.18a7 7 0 0 0-1.75-0.19m51.5 7.38 2.42 2.75c1.34 1.51 2.57 2.75 2.75 2.75 0.79 0 0.15-0.81-2.42-3.08zm900.38 18.62a18 18 0 0 0-2.62 0.16q-0.67 0.1-0.7 0.2v0.01c0.06 0.13 1.11 0.22 2.94 0.22 1.72 0 2.85-0.06 3.15-0.18q0.07-0.02 0.08-0.04v-0.02q0-0.09-0.47-0.17c-0.61-0.12-1.48-0.18-2.39-0.19m70.57 22.66c-0.14 0.02-0.24 0.63-0.25 1.71-0.02 1.28 0.1 2.04 0.28 2l0.04-0.01q0.06-0.04 0.14-0.22c0.27-0.68 0.29-2.03 0.03-3q-0.11-0.44-0.22-0.48zm-308.53 12.33c-0.35-0.01-0.75 0.05-1.1 0.2q-0.57 0.23-0.46 0.38v0.01q0.16 0.17 1.06 0.21c0.65 0.03 1.13-0.05 1.32-0.2l0.02-0.02 0.06-0.09q0.02-0.1-0.1-0.21c-0.16-0.17-0.46-0.26-0.8-0.28m6.42 12.23q-0.21 0.02-0.26 1.07c-0.04 0.87 0.12 1.43 0.36 1.4l0.07-0.02 0.1-0.07c0.33-0.33 0.36-1.2 0.07-1.92q-0.2-0.48-0.34-0.46m276.17 2.2-0.06 0.1-0.03 0.13c-0.08 0.4-0.13 1.34-0.13 2.72-0.01 2 0.09 3.2 0.23 3.24h0.01q0.03 0 0.04-0.03 0.06-0.07 0.13-0.45c0.24-1.23 0.25-3.48 0.02-5q-0.1-0.61-0.18-0.7h-0.02m-276.06 1.24c-0.14 0.02-0.24 0.63-0.25 1.71-0.02 1.28 0.1 2.04 0.28 2l0.04-0.01q0.06-0.04 0.14-0.22c0.27-0.68 0.29-2.03 0.03-3q-0.11-0.44-0.22-0.48zm-913.47 6.2q-0.16 0.03-1.23 0.88c-0.96 0.76-1.75 1.55-1.75 1.75q0 0.38 0.23 0.38h0.05l0.05-0.01q0.22-0.06 0.55-0.36 0.51-0.45 1.25-1.38 0.9-1.13 0.88-1.24h-0.02zm915.36 15.36q-0.21 0.02-0.26 1.07c-0.04 0.87 0.12 1.43 0.36 1.4l0.07-0.02 0.1-0.07c0.33-0.33 0.36-1.2 0.07-1.92q-0.2-0.48-0.34-0.46m-932.36 1.64q-0.16 0.03-1.23 0.88c-0.96 0.76-1.75 1.55-1.75 1.75q0 0.38 0.23 0.38h0.05l0.05-0.01q0.22-0.06 0.55-0.36 0.51-0.45 1.25-1.38 0.9-1.13 0.88-1.24h-0.02zm816.52 4.51 1.9 2.25c1.05 1.24 2.06 2.25 2.25 2.25l0.14-0.01c0.59-0.1-0.06-0.9-2.04-2.58zm-563.51 18.62a13 13 0 0 0-2.6 0.27q-0.18 0.06-0.18 0.1v0.02h0.01c0.1 0.14 1.1 0.23 2.77 0.23 1.24 0 2.11-0.05 2.52-0.13q0.3-0.06 0.25-0.13t-0.52-0.18a13 13 0 0 0-2.25-0.18m30.87 0a11 11 0 0 0-2.48 0.27l-0.2 0.08-0.02 0.05c0.03 0.14 0.87 0.23 2.33 0.24 1.58 0 2.55-0.1 2.62-0.24v-0.04q-0.05-0.07-0.36-0.16a8 8 0 0 0-1.9-0.2m6.13 0.01a7 7 0 0 0-2.03 0.28q-0.13 0.06-0.13 0.11v0.01c0.03 0.15 0.82 0.25 2.16 0.25q0.73 0 1.22-0.04c0.66-0.04 1-0.13 0.93-0.24q-0.04-0.09-0.4-0.18a7 7 0 0 0-1.75-0.19m6.88 0c-0.54 0-1.12 0.06-1.61 0.19a1 1 0 0 0-0.45 0.18l-0.02 0.02-0.01 0.03v0.02c0.06 0.14 0.67 0.23 1.71 0.24 1.65 0.02 2.45-0.18 1.77-0.46a4 4 0 0 0-1.39-0.21m-34.1 0.14q-1.44 0.07-1.52 0.15v0.01h-0.01v0.01c0.17 0.11 2.79 0.19 7.25 0.19 4.43 0 7.17-0.07 7.53-0.18l0.04-0.02v-0.01q-0.08-0.07-1.28-0.15c-3.14-0.2-8.54-0.2-12 0m-277.78 0.83c-1.18 0-2.36 0.06-3.25 0.17q-0.7 0.09-0.76 0.16v0.02c0.1 0.13 1.55 0.22 4.01 0.22 1.79 0 3.05-0.04 3.64-0.12q0.33-0.04 0.37-0.1v-0.01q-0.06-0.09-0.76-0.17c-0.9-0.11-2.07-0.17-3.25-0.17m11.88 0c-1.09 0-2.21 0.05-3.11 0.17a5 5 0 0 0-0.7 0.12l-0.06 0.01-0.06 0.04v0.04c0.17 0.12 1.44 0.2 3.55 0.2 2.22 0 3.6-0.08 3.83-0.2l0.02-0.02v-0.02q-0.04-0.08-0.58-0.17c-0.75-0.1-1.8-0.17-2.9-0.17m27 0c-1.09 0-2.21 0.05-3.11 0.17a4 4 0 0 0-0.82 0.17v0.03q0.03 0.05 0.27 0.08c0.5 0.08 1.63 0.13 3.28 0.13 2.22 0 3.6-0.08 3.83-0.2l0.02-0.02v-0.02q-0.04-0.08-0.58-0.17c-0.75-0.1-1.8-0.17-2.9-0.17m72.41 0.15q-1.52 0.08-1.64 0.15h-0.01v0.02h0.03c0.32 0.11 3.14 0.18 7.83 0.18 5.03 0 8.03-0.07 8.18-0.19v-0.01q-0.07-0.08-1.39-0.15c-3.41-0.2-9.26-0.2-13 0m-62.04 0a6 6 0 0 0-1.34 0.15l-0.01 0.01v0.01l0.02 0.01h0.03q0.13 0.04 0.62 0.08c1.04 0.06 3.27 0.1 6.43 0.1s5.4-0.04 6.43-0.1q0.6-0.04 0.66-0.09h0.01v-0.01l-0.01-0.01q-0.1-0.08-1.34-0.15c-3.16-0.2-8.34-0.2-11.5 0m22 0a8 8 0 0 0-1.34 0.15l-0.01 0.01v0.01c0.17 0.11 2.75 0.2 7.1 0.2 3.16 0 5.4-0.05 6.43-0.11q0.6-0.04 0.66-0.09h0.01v-0.01l-0.01-0.01q-0.1-0.08-1.34-0.15c-3.16-0.2-8.34-0.2-11.5 0m64 0a8 8 0 0 0-1.34 0.15l-0.01 0.01v0.01c0.17 0.11 2.75 0.2 7.1 0.2 3.16 0 5.4-0.05 6.43-0.11q0.6-0.04 0.66-0.09h0.01v-0.01l-0.01-0.01q-0.1-0.08-1.34-0.15c-3.16-0.2-8.34-0.2-11.5 0m-42.97 0a8 8 0 0 0-1.18 0.17v0.01c0.1 0.12 2.05 0.2 5.4 0.2 3.44 0 5.53-0.07 5.7-0.2h0.01v-0.02q-0.07-0.08-0.93-0.15a65 65 0 0 0-9 0m-71.53 0q-0.76 0.08-0.94 0.14h-0.02l-0.03 0.03v0.01q0 0.03 0.07 0.04c0.4 0.1 2.25 0.17 5.17 0.17 2.34 0 3.98-0.04 4.75-0.11q0.45-0.04 0.5-0.1v-0.01h-0.01q-0.07-0.07-0.99-0.16a57 57 0 0 0-8.5 0"/>
</svg>
