<svg xmlns="http://www.w3.org/2000/svg" viewBox="-20 -20 1295.87 751.58"><path d="M939.22 42.1a3 3 0 0 0-.74.11l-.1.03q-.55.15-1.23.47l-.27.15q-.57.3-1.28.73l-.27.18c-2.5 1.62-6.17 4.58-12.22 9.69a490 490 0 0 1-12.24 10.12l-.1.04-.12.02h-.14q-.14 0-.32-.06a7 7 0 0 1-2.37-1.53 9 9 0 0 0-2.22-1.45 6 6 0 0 0-2.47-.6 3 3 0 0 0-.66.14 5.38 5.38 0 0 0-2.84 2.51l-.18.42q-.08.2-.13.4a3 3 0 0 0-.07.8 2 2 0 0 0 .22.68 1 1 0 0 1 .12.82 1.1 1.1 0 0 1-.83.8 1.1 1.1 0 0 1-.9-.18 1 1 0 0 1-.35-.37 1 1 0 0 0-.21-.27c-1.24-1.21-4.97-.85-6.29.74l-.13.17a5.41 5.41 0 0 0-.48 3.8c.25 1 .36 1.6.19 1.9l-.02.04-.13.13-.15.06-.1.02q-.19.04-.46.02a12 12 0 0 1-1.52-.24 6 6 0 0 0-2.27-.03l-.39.1-.1.04q-.3.1-.59.27-.65.38-1.07 1.01a4 4 0 0 0-.53 1.5q-.1.67.01 1.47.05.4.16.82c.28 1.13.3 1.97.08 2.14l-.01.01h-.01l-.01.01h-.02l-.05.01h-.02l-.1-.04q-.16-.1-.5-.1c-.64-.04-1.69.16-2.67.53q-.94.34-1.42.75-.38.34-.52.83v.05c-.15.6-.09 1.4.1 2.63q.2 1.07.18 1.83a3 3 0 0 1-.62 1.93 10 10 0 0 1-2.11 1.9c-1.71 1.26-9.47 7.8-17.25 14.52l-5.17 4.45q.73-.93.7-1.01L854 108q-.12-.04-1.25.87c-.96.76-1.75 1.55-1.75 1.75q0 .22.07.31a2297 2297 0 0 1-20.15 17.04l-13.42 11.18-3.8-4.33c-2.1-2.38-7.26-8.6-11.48-13.82-12.14-15.03-25.22-29.93-27.24-31q-.57-.32-1.15-.52a7 7 0 0 0-1.74-.4 8 8 0 0 0-4.29.9l-.46.26q-1.09.56-2.25 1.41c-4.65 3.43-6.09 5.26-6.1 7.8-.02 2.04-2 4.38-4.07 5.42a5 5 0 0 1-1.95.55 3 3 0 0 1-.77-.08l-.31-.06a2 2 0 0 0-.68.02 4 4 0 0 0-.78.22c-1.54.6-3.74 2.27-7.42 5.54-3.04 2.7-5.82 5.7-7.04 7.52q-.52.76-.63 1.2c-.38 1.51-.12 3.22 1.25 5.86q.68 1.31 1.76 2.97c2.89 4.46 8.04 11 16.56 21.38l16.03 19.5-3.97 4.04c-2.14 2.18-3.9 4.35-3.97 4.88v.03c0 .48 1.2 2.44 2.66 4.36l2.66 3.49-3.05 2.6c-1.68 1.44-7.04 5.97-11.91 10.07s-13.81 11.8-19.86 17.09l-9.17 7.94q.71-.9.67-.98V223q-.13-.02-1.25.87c-.96.76-1.75 1.55-1.75 1.75q0 .22.08.31a19143 19143 0 0 1-43.08 37l-31.15 26.67a19 19 0 0 0 1.16-1.6H649q-.13-.02-1.25.87c-.96.76-1.75 1.55-1.75 1.75q0 .37.2.38l-18.68 16q.47-.44.98-1c.62-.69 1.09-1.3 1.28-1.66l.1-.22v-.08h-.01q-.01-.04-.06-.04c-.27 0-1.31.9-2.31 2s-1.59 2-1.31 2q.06 0 .18-.06l.25-.16L614.7 318c-2.25 1.92-9.96 8.6-17.14 14.84s-17.3 15.01-22.5 19.5l.07-.09q.9-1.13.88-1.24L576 351q-.13-.02-1.25.87c-.96.76-1.75 1.55-1.75 1.75q0 .31.15.37c-4.84 4.2-10.42 9.09-13.14 11.51-3.38 3.01-9.4 8.18-15.68 13.5q.71-.9.67-1-.12-.03-1.25.87c-.96.76-1.75 1.55-1.75 1.75q0 .2.06.3a999 999 0 0 1-17.35 14.37 274 274 0 0 0-11.8 10.08c-3.08 2.82-8.2 7.35-11.4 10.07l-5.8 4.93-2.93-1.68q-.54-.31-1.08-.57a10 10 0 0 0-5.22-1.04q-1.56.14-3.16.84c-2.5 1.1-5.13 3.23-8.12 6.48-3.18 3.44-4.2 5.37-4.2 7.88a7 7 0 0 1-.27 1.88 8 8 0 0 1-.92 1.94q-.44.69-1.06 1.43c-1.68 2.01-4.45 4.49-8.85 8.05A945 945 0 0 0 445 458.3c-5.17 4.5-9.25 7.64-11.34 8.79q-.25.15-.48.25-.66.3-.9.21c-.8-.3-2.64-.56-4.11-.57-2.3 0-3.7-.34-4.3-1.05-.58-.72-.34-1.81.67-3.36 1.75-2.67 1.75-2.7-2.1-6.62a26 26 0 0 0-2.89-2.57 8 8 0 0 0-2.27-1.33l-.25-.05h-.07c-1.71 0-32.74 26.27-46.37 39.25l-7.9 7.53 1.96 3.36c1.07 1.84 3.13 3.76 4.56 4.26q.8.3 1.48.35h.35c1.26-.05 2.52-.82 4.92-2.72l4.14-3.28 2.47 2.31 2.46 2.32-.1.12a8 8 0 0 0-.8-.86q-.6-.57-1.38-1.23l-2.25-1.91 1.9 2.25q1.52 1.79 2.13 2.15l-3.26 3.4a70 70 0 0 1-2.55 2.45 18 18 0 0 0 1.29-1.74L380 510q-.13-.02-1.25.87c-.96.76-1.75 1.55-1.75 1.75q0 .3.15.37l.08.01q.07 0 .17-.04l-.94.86q.54-.7.55-.8V513H377V513q-.1-.04-1.25.87c-.96.76-1.75 1.55-1.75 1.75q0 .25.1.33l-.1.08V516q-.14-.02-1.25.87c-.96.76-1.75 1.55-1.75 1.75v.09c-3.2 2.84-6.84 6.02-10.48 9.16a1293 1293 0 0 0-23.5 20.66l-.52.48q.3-.33.63-.76.9-1.13.88-1.24L338 547q-.13-.02-1.25.87c-.96.76-1.75 1.55-1.75 1.75q0 .4.26.38h.04a1 1 0 0 0 .23-.1 350 350 0 0 1-9.03 8.01c-2.2 1.84-6.42 5.63-9.37 8.42l-5.38 5.07-3.39-3.7c-1.74-1.9-3.51-3.49-4.1-3.68l-.08-.02h-.02l-.1.01c-.52.13-1.85 1.2-3.06 2.49-1.3 1.37-3 2.5-3.8 2.5h-.06c-1.64.32-13.27 10.36-13.95 12.1-.06.12 1.09 1.46 3.02 3.6q-.39-.38-.96-.83a10 10 0 0 0-1.18-.86l-.03-.01H284q-.02.13.87 1.25c.76.96 1.55 1.75 1.75 1.75l.15-.01q.44-.08.06-.63c5.25 5.75 15.29 16.26 23.94 25.06l-.02-.01-2.25-1.91 1.9 2.25a27 27 0 0 0 1.97 2.07q.22.18.28.18h.11l.04-.01.05-.01q.23-.07.1-.34l3.47 3.49-1.92-1.63 1.9 2.25q1.93 2.29 2.41 2.25h.02q.17-.03.17-.32l.43.43.04.06v.02l.02.1-.01.06c-.08.38-.66 1.1-1.55 1.9q-.57.52-1.27 1.06l-3.4 2.6-14.1-14.2-7.86-7.93q.32.24.5.22l.06-.01.02-.02h.02l.01-.02q.09-.09.09-.33c0-.2-.79-1-1.75-1.75a10 10 0 0 0-1.18-.86l-.03-.01H289q-.02.13.87 1.25l.42.51-5.23-5.26-10.28-.5q-2.7-.12-4.72-.28a25 25 0 0 1-3.32-.45q-.33-.07-.62-.16-1.27-.38-1.62-1.1l-.07-.17q-.15-.43.02-1c.63-2.4 5.02-6.79 13.52-15.15 7.5-7.4 12.02-12.26 13.9-15.41 1.2-2.03 1.32-3.33.43-4.14a2 2 0 0 0-.34-.25 3 3 0 0 0-.89-.4q-.51-.17-1.17-.27a22 22 0 0 0-5.67-.04q-.6.09-1.16.21-2.26.52-3.98 1.62-1.29.83-2.2 1.94a8 8 0 0 0-1.83 4.33 9 9 0 0 0-.07 1.15q0 .07-.02.16c-.27 1.6-2.61 4.88-6.65 9.44l.28-.4c.26-.39.35-.63.21-.63-.27 0-1.31.9-2.31 2s-1.59 2-1.31 2h.04l.05-.02.12-.06c.27-.15.72-.52 1.22-1-2.6 2.82-5.75 6.06-9.4 9.62-2.5 2.46-4.12 4.47-4.58 5.68l-.1.35-.03.3.03.18.02.05q.08.15.24.37a46 46 0 0 0 4.58 4.62l-1.88-1.59 1.9 2.25c1.05 1.24 2.06 2.25 2.25 2.25h.1q.68-.06-.48-1.22l.25.22c1.54 1.33 3.12 2.78 4.52 4.12q.15.26.83 1.13c.76.96 1.55 1.75 1.75 1.75q.15 0 .24-.04.68.74 1.05 1.22l2.04 2.68-4.97 3.06q-1.97 1.2-3.09 2.1-.29.22-.51.45c-1.1 1.02-1.4 1.88-1.06 2.92l.18.45q.34.7 1 1.55c1.32 1.75.94 2.26-4.98 6.74-3.13 2.37-4.96 3.6-6.44 4.1a5.45 5.45 0 0 1-2.93.15c-2.62-.52-5.59.04-8.31 1.46a17 17 0 0 0-4.5 3.43 23 23 0 0 0-2.56 3.22 18 18 0 0 0-2.67 7.41q-.33 2.19-.41 4.95l-.02-.04c-.32-.8-.55-.56-.6.6-.04.88.12 1.44.36 1.41l.07-.02.1-.07c-.2 2.84-.68 4.5-1.33 4.88a1 1 0 0 1-.3.07h-.07q-.76-.1-1.74-2.2-.2-.44-.36-.9l-.1-.29a17 17 0 0 1-.63-6.85c-.04 1.04.2 1.62.52 1.29.34-.33.37-1.2.08-1.92q-.36-.88-.53-.1c.03-.25.1-.5.13-.76q.3-2 .92-4.01.39-1.2.87-2.38l.07-.14a29 29 0 0 1 3.74-6.38 23 23 0 0 1 3.4-3.44c3.11-2.47 4.94-3.08 10.18-3.42 7.98-.5 11.66-3.61 11.97-10.1l.2-4.08H149.9l-20.96 21-2.69 2.44c-1.79 1.61-3.25 3.08-3.25 3.25q0 .15.04.22l-2.64 2.65-.52.53q0-.09-.07-.09c-.27 0-1.31.9-2.31 2a8 8 0 0 0-1.36 1.83l-4.27 4.28q.03-.1-.06-.11c-.27 0-1.31.9-2.31 2a7 7 0 0 0-1.37 1.86l-.13.14a6 6 0 0 0-1.25.87c-.96.76-1.75 1.55-1.75 1.75q0 .22.07.3l-5.66 5.68.09-.1-3.25 2.94c-1.79 1.61-3.25 3.08-3.25 3.25q0 .18.07.25l-.07.07V672q-.11-.03-1.25.87c-.96.76-1.75 1.55-1.75 1.75q0 .22.08.32L85 680V680a6 6 0 0 0-1.25.87c-.96.76-1.75 1.55-1.75 1.75q0 .22.07.31l-2.1 2.1-2.1 2.1v-.09l-.01-.02V687h-.01l-.04-.01c-.27 0-1.31.9-2.31 2a8 8 0 0 0-1.36 1.85c-14.64 14.6-28.28 28.16-36.39 36.16C23.59 740.98 12 752.54 12 752.7c0 .49 125.8.33 217.31-.21 1.16.07 3.83.1 7.69.1 5.55 0 8.64-.08 8.3-.2l3.3-.03 3.28-.02q-.25.06-.27.1v.02c.04.14 1.28.23 3.39.23 2.1 0 3.33-.1 3.4-.22v-.02l-.02-.02-.07-.04-.06-.02-.36-.08 5.94-.04h-.05a4 4 0 0 0-1.06.17v.03q.03.03.17.05c.52.09 2.13.15 4.61.15 2.89 0 4.7-.07 5.04-.19l.05-.02v-.03h-.01l-.01-.01a3 3 0 0 0-.8-.14l-.74-.06 7.5-.06a15 15 0 0 0-1.72.22l-.19.06q-.01 0-.03.02h-.02v.02h-.01v.02c.06.13 1.11.22 2.94.22 1.72 0 2.85-.06 3.15-.18q.07-.02.09-.05v-.01q-.02-.09-.48-.17c-.4-.08-.92-.14-1.48-.16l63.1-.47 20.39-30.58c21.46-32.21 50.7-76.41 62.22-94.09a511 511 0 0 1 7.8-11.75q.09-.13 0-.24a1 1 0 0 0-.32-.17c-1.9-.66-11.49-.84-37.6-.84H357.5l.3 4.78-.1-.51q-.12-.44-.23-.48c-.15-.04-.26.58-.27 1.71-.02 1.28.1 2.04.28 2l.04-.01q.06-.04.14-.22c.12-.3.2-.76.2-1.24q.09 1.45 0 2.52-.03.55-.13 1.04-.02.13-.06.25-.07.36-.18.71-.15.47-.37.93l-.24.46q-.12.25-.27.5v.01q-.58.99-1.5 2.24c-2.12 2.93-4.18 4.51-6.82 5.25-5.5 1.52-7.3 1.32-12-1.37l-4.22-2.41-3.28 3.3a274 274 0 0 1-10.25 9.43 99 99 0 0 1-3.76 3.18c-1.04.82-1.9 1.42-2.68 1.86a8 8 0 0 1-4.48 1.07 13 13 0 0 1-2.2-.18 8.5 8.5 0 0 1-3.54-1.85c.41-.17-.34-1.03-2.63-3.05l-2.75-2.42 2.42 2.75.74.82q-1.46-1.34-3.5-3.32l-7.5-7.25-.78 2.88q-.33 1.2-.97 2.34l-.25.47a13 13 0 0 1-2.94 3.41q-.22.17-.44.3-.52.38-1.03.63l-.19.1q-.84.37-1.6.37c-.62 0-1.72.48-3 1.23-2.9 1.7-6.77 4.76-8.52 6.8a8 8 0 0 0-.7.92l-.13.25-.08.23-.03.2a5 5 0 0 1-.1.97c-.4 2.05-1.89 4.55-3.1 5.23l-.3.12a1 1 0 0 1-.57.02c-.89-.18-.97-1.28-.5-4.72.24-1.67.53-2.9 1.11-4.09.84-1.68 2.27-3.28 5.01-5.91.94-.9 1.92-1.77 2.83-2.51q1.4-1.14 2.5-1.86l.54.04c.69.03 1.18-.06 1.34-.22l.03-.03.02-.05.01-.03v-.07l-.1-.12q-.18-.18-.53-.25.36-.15.59-.15c.98 0 2.78-.7 4-1.56q.58-.4.95-.74c.46-.42.68-.8.7-1.23q.01-.18-.02-.38l-.06-.27q-.13-.43-.43-.96a11 11 0 0 1-.75-1.76q-.07-.31-.03-.4 0-.02.02-.02l.01-.02c.19-.09 1.79-1.47 3.56-3.07l3.22-2.92 2.23 2.15a9 9 0 0 0-1.12-.82H289q-.02.13.87 1.25c.76.96 1.55 1.75 1.75 1.75q.59-.01.28-.52l2.07 1.99q-.33-.3-.72-.6a10 10 0 0 0-1.18-.86l-.03-.01H292q-.02.13.87 1.25c.92 1.17 1.6 1.78 1.92 1.75h.02l.04-.01.02-.01.01-.01.02-.01.02-.01.01-.02.03-.06.02-.05.02-.2q-.01-.12-.31-.46l2.25 2.18c3.7 3.57 7.28 6.66 9.17 7.98q.63.44.99.6l.09.03.15.05h.12q.14-.02.32-.09c1.11-.4 3.57-2.12 5.9-4.16l.5-.43q-.18.21-.18.3 0 .38.23.38h.05l.05-.01q.21-.06.55-.36.51-.45 1.25-1.38.9-1.15.87-1.25-.04-.02-.14.05-.18.1-.56.4c5.43-4.8 10.88-9.74 13.28-12.03l2.18-2.09 3.8 2.84c7.92 5.9 17.44 2.48 17.44-6.28a15 15 0 0 0-.47-3.64 10.6 10.6 0 0 0-3.35-5.4 8 8 0 0 0-3.85-1.75q-.65-.1-1.31-.1a9 9 0 0 1-3.18-.41 2.5 2.5 0 0 1-.83-.6q-.16-.18-.28-.41a3 3 0 0 1-.2-.5c-.34-1.06-1.74-3.58-3.11-5.6l-2.5-3.68 8.43-7.89 4.65-4.3v.01q0 .38.23.38h.05l.05-.01q.21-.06.55-.36.51-.45 1.25-1.38a7 7 0 0 0 .88-1.23V584L350 584h-.01q-.03 0-.08.02l-.15.09c2.18-1.96 4.07-3.63 5.17-4.55a844 844 0 0 0 27.02-24.06c4.75-4.4 13.75-12.5 19.99-18l2.06-1.82q.02.35.26.32h.04c.36-.08 1-.69 1.83-1.75a8 8 0 0 0 .87-1.21l4.1-3.61q-.1.12-.1.2 0 .37.23.37h.05l.05-.01q.21-.06.55-.36.51-.45 1.25-1.38.9-1.14.87-1.24V527q-.04-.02-.23.1l-.24.17.87-.77c.6-.55 5.83-5.05 11.6-10s11.44-9.89 12.6-11a485 485 0 0 1 6.38-5.91c4.08-3.72 4.2-4 2.4-5.34-.55-.42-.97-.73-.8-1.39q.56-.36 1.55-1.61a6 6 0 0 0 .87-1.24V490q-.04-.01-.14.04-.17.1-.54.4.67-.74 1.68-1.72.03.29.23.28.07 0 .15-.03l.11-.05.13-.08q.56-.4 1.5-1.59a6 6 0 0 0 .89-1.23V486H453V486h-.06l-.13.08c3.44-3.17 8.6-7.74 16.19-14.43q0 .36.24.35l.15-.03q.57-.24 1.74-1.72.85-1.06.87-1.22V469l1.26-1.12c7.54-6.65 11.53-10.12 14.15-11.93s3.87-1.96 5.95-1.96q1.2 0 2.25-.15a11 11 0 0 0 3.04-.91c1-.46 2.02-1.09 3.16-1.92 2.92-2.11 4.8-4.04 5.84-6.33q.22-.5.4-1 .33-1.04.48-2.2c.2-1.55.14-3.3-.13-5.37a51 51 0 0 0-.58-3.46l.01-.15q0-.09.03-.17.09-.42.43-.98.28-.45.7-.99a32 32 0 0 1 4.17-4.08c3.11-2.63 15.44-13.34 27.4-23.79s27.69-24.18 34.96-30.5l15.52-13.5-.04.12q0 .38.23.38h.05l.05-.01q.22-.06.55-.36.51-.45 1.25-1.38.88-1.12.88-1.24L594 356h-.06l-.05.03 1.76-1.53c3.8-3.3 9.3-8.03 12.25-10.5 7.2-6.05 28.1-23.86 30.6-26.07a3398.93 3398.93 0 0 1 15.58-13.49q-.08.12-.08.18 0 .38.23.38h.05l.05-.01q.22-.06.55-.36.51-.45 1.25-1.38.86-1.09.88-1.23V302L657 302h-.05l-.04.02 7.08-6.04c3.58-3.01 7.4-6.32 8.5-7.35s8.53-7.42 16.51-14.21 17.88-15.31 22-18.92 14.25-12.26 22.5-19.23A1589 1589 0 0 0 762 211.7q.02.33.26.31h.05q.54-.15 1.82-1.75.64-.8.81-1.09c6.95-5.93 12.31-10.16 12.97-10.16l.08.01q0 .13.88 1.24c.76.96 1.55 1.75 1.75 1.75.51 0 .5-.32.02-.87l.36.37q.56.6 1.03 1.04a4.5 4.5 0 0 0 1.92 1.22q.7.16 1.48-.15c.92-.37 2.03-1.22 3.6-2.57a26 26 0 0 1 3.96-2.93l.12-.05.1-.02c.38-.02 5.1 5.18 10.5 11.56l9 10.65a18 18 0 0 0-1.64-1.24l-.03-.01H811q-.02.13.87 1.25c.76.96 1.55 1.75 1.75 1.75h.1q.3-.03.28-.23c6.3 7.4 9.6 11.2 11.96 13.69q-.3-.27-.71-.59a10 10 0 0 0-1.18-.86l-.03-.01H824q-.02.13.87 1.25c.76.96 1.55 1.75 1.75 1.75l.15-.01q.43-.08.06-.63c1.1 1.13 2 1.98 3.01 2.89q1.1.99 2.05 1.72.96.72 1.84 1.18a8 8 0 0 0 1.72.64 5 5 0 0 0 .86.11c2.58.12 5.35-1.66 9.97-5.55a68 68 0 0 0 4.75-4.35q.91-.95 1.44-1.61.25-.33.4-.57l.12-.3v-.03l.01-.03q.01-.48.41-1.13a7 7 0 0 1 .48-.66 20 20 0 0 1 4.62-3.98c.7-.45 1.4-.8 1.98-1.02a4 4 0 0 1 .81-.22q.28-.04.5 0 .06 0 .13.03.2.06.48.02c1.3-.2 3.7-2.1 5.88-4.34a32 32 0 0 0 3.29-3.94c.86-1.26 1.42-2.38 1.42-3.11q0-.4-.28-1.12a43 43 0 0 0-3.72-6.62 164 164 0 0 0-9.3-12.77c-19.63-24.48-23.57-29.27-25.03-30.47a6 6 0 0 1-1.51-1.9q-.15-.34-.16-.6c0-1.11 12.1-11.77 36.5-32.16 12.98-10.85 17.56-14.47 19.45-15.06q.25-.07.46-.09l.18.01q.04 0 .09.02h.02l.1.04h.03l.06.05c.54.33 2.36 3 4.03 5.92q.67 1.19 1.37 2.73a83 83 0 0 1 3.94 11.53 136 136 0 0 1 3.71 18.88l2.56 21.05c1.67 13.72 4.04 21.5 9 29.56a97 97 0 0 1 5.53 10.5q.44 1.02 1.2 2.3a44 44 0 0 0 5.77 7.59 44 44 0 0 1 7.94 11.84 60 60 0 0 0 7.54 12.09c2.47 2.89 5.46 7.46 6.63 10.16a65 65 0 0 0 10.59 16.77 79 79 0 0 0 7.49 7.52q4.14 3.65 9.17 7.2l9.5 6.7 4.64 3.26.56-3.77c.15-.96.18-1.94.1-2.84a10 10 0 0 0-.32-1.88q-.15-.5-.35-.92l-.18-.35c-.72-1.21-1.31-4.45-1.31-7.19 0-.91-.05-1.81-.15-2.61q-.15-1.21-.4-2.02a5 5 0 0 0-.25-.66l-.14-.22-.1-.1-.05-.03a1 1 0 0 1-.3-.3l-.15-.28a3 3 0 0 1-.22-1.32 4 4 0 0 1 .13-.86 4.5 4.5 0 0 0-.6-3.47 2 2 0 0 1-.23-.34c-.53-.92-.95-2.67-.98-4.2a9 9 0 0 0-.13-1.49 4 4 0 0 0-.36-1.03 2 2 0 0 0-.28-.37l-.16-.16q-.44-.34-1.13-.46a6 6 0 0 1-.92-.28c-1-.37-2.14-1.04-2.89-1.7a4 4 0 0 1-1-1.28 3 3 0 0 1-.23-.76l-.04-.27a4 4 0 0 1 .04-1.25l.15-.72q.19-.75.56-1.68a60 60 0 0 1 3.94-7.49l3.99-6.75-3.71-5.6a78 78 0 0 0-10.25-12.1c-3.77-3.66-7.52-6.58-10.14-7.68-10.85-4.57-16.27-7.13-19.49-9.71a14 14 0 0 1-3-3.23q-.6-.87-1.1-1.87l-.01-.02q.25.22.6.22c.55 0 1-.2 1-.44q0-.07-.04-.16c.9.83 1.03.85 2.29 2.07 4.52 4.37 12.92 8.95 15.08 8.37l.2-.08.15-.1q.06-.08.09-.21l.03-.21-.01-.61q-.05-.74-.25-1.88c-.06-.34-.21-.9-.3-1.29-.95-4.77-3.14-12.7-5.5-19.26a56 56 0 0 0-2.87-6.54 91 91 0 0 0-4.07-7.09 108 108 0 0 0-10.39-13.78c-4.8-5.35-7.4-11.1-13.8-30.56-2.76-8.39-4.33-13.24-4.75-16.88.03-.46 0-.94-.11-1.34a14 14 0 0 1 .01-1.45c.21-3.27 1.63-5.95 4.21-10.63 1.34-2.43 2.19-4.23 2.56-5.96a10 10 0 0 0 .14-3.5q-.11-.93-.39-1.96c-.35-1.4-.91-3-1.66-4.96l-2.2-5.75q.24.2.58.2c.55 0 1-.2 1-.44q0-.05-.02-.09.32.38.6.81.28.45.53.96.49 1.03.93 2.38c.46 1.4.97 2.6 1.29 3.11q.13.21.22.26h.01l.02.01h.02l.04-.01q.12-.05.33-.18c.57-.36 1.66-1.2 2.79-2.19 4.43-3.83 12.6-10.8 18.12-15.42q1.24-1.05 2.19-2a13 13 0 0 0 2.6-3.28l.14-.34a3 3 0 0 0 .18-1 2 2 0 0 0-.08-.43c-.43-1.48-2.25-4.4-4.3-7.19-2.2-2.98-4.67-5.8-5.98-6.53l-.25-.11a3 3 0 0 0-1.16-.21m9.76 18.9q-.16 0-1.23.87c-.96.76-1.75 1.55-1.75 1.75q0 .38.23.38h.05l.05-.01q.22-.06.55-.36.51-.45 1.25-1.38.9-1.13.88-1.24L949 61zm-39.15 9.67c3.84.08 6.43.3 8.29.93q.46.15.87.35t.76.43c-.43-.15-.75.07-.75.56a1 1 0 0 0 .2.64l-7.28-1.22a51 51 0 0 0-5.01-.66h-.01c-1.85-.11-2.95.07-3.44.61a1 1 0 0 0-.24.4v.01q-.1.27-.07.62a6 6 0 0 0 1.88 3.74 9.5 9.5 0 0 0 3.88 1.9c3.33.9 4.88 1.83 4.9 3.02l-.01.17v.03q-.04.22-.13.45 0 .02-.02.05-.07.18-.2.37-.1.19-.26.3l-.16.08q-.67.28-1.88-.8c-.9-.83-2.91-1.81-4.46-2.2a7 7 0 0 1-2.86-1.5l-.48-.44a7.4 7.4 0 0 1-2.2-4.5V74a5 5 0 0 1 .19-2.04l.08-.22a1 1 0 0 0 .12.33c.32.51.8.93 1.08.93h.02l.07-.02.01-.01c.15-.11.07-.5-.22-.97-.34-.55-.07-1 .6-1q.74-.02.77-.33c1.25-.08 3.13-.06 5.96 0m-4.58 46.36h.06l.07.05q.07.04.13.15h.01q.07.1.14.23c.08.13.18.39.26.57a47 47 0 0 1 1.99 5.67c.65 2.15 1.39 4.79 2.18 7.82 1.64 6.27 2.56 11.37 2.62 13.29v.41q0 .17-.04.27l-.02.05-.02.05-.02.02-.02.01h-.01c-.25.05-.85-1.33-1.82-4.62-2.47-8.35-5.76-21.67-5.73-23.17a2 2 0 0 1 .1-.71l.02-.01.03-.05v-.01h.02l.01-.01h.01l.02-.01m123.67 68.1c-.35-.02-.75.04-1.1.19-.8.32-.57.55.6.6.65.03 1.13-.05 1.32-.2l.02-.02q.13-.14-.03-.3c-.17-.17-.47-.26-.81-.28m13.24.33-.12.02-.03.02c-.35.21-5.78.47-12.07.58-4.72.08-9.1.39-11.28.76q-1.11.2-1.38.4a3 3 0 0 1-.87.36l-.25.05c-1.22.3-3.17.52-5.13.5-2.25-.01-4.16.22-4.8.56a1 1 0 0 0-.19.15l-.01.02-.01.02-.01.02v.02l-.01.02v.05l-.01.04-.01.04-.02.03-.02.04-.03.03c-.25.28-1.02.33-1.91.1a4 4 0 0 0-.92-.14q-.19 0-.34.03-.76.16-.74 1.32l-.03.42q-.11.85-.85.92h-.03q-.25.03-.6-.03l-.5-.1c-.57-.15-1.47.16-2.5.74q-.76.43-1.59 1.04c-1.9 1.4-3.86 3.34-4.71 4.8q-.38.64-.44 1.12-.03.24.03.43a1 1 0 0 1 .05.28c-.01.37-.3.67-.76.8a2 2 0 0 1-.55.08 2 2 0 0 0-.74.11l-.16.1q-.4.3.04 1.04.16.26.28.66t.18.88c.1.64.1 1.34.03 1.96a5 5 0 0 0-.04 1.06q.03.22.09.4.07.15.16.3l.06.06.05.06q.42.38 1.4.37c1.04 0 2.09.3 2.43.7q.04.03.06.08.02.03.03.08v.15c-.02 1.1-1.27 5.47-2.97 10.36-1.92 5.5-2.93 8.7-3.2 10.77q-.06.39-.07.72c-.04.78.06 1.37.3 1.86l.1.2q.1.21.26.39.28.36.69.69c.73.6 1.18 1.19 1.3 1.97.18 1.1-.28 2.6-1.52 5.05-.72 1.4-1.7 3.12-2.95 5.26-2.13 3.64-3.36 6.16-3.7 7.9q-.12.56-.1 1.02 0 .61.23 1.07.12.23.28.42l.18.18q.4.36.98.6.6.24 1.4.39.63.12 1.15.28a6 6 0 0 1 1.31.6q.19.12.34.26c1.03.9 1.26 2.3.9 4.54a10 10 0 0 0-.17 2.31c.07.77.34 1.24.86 1.55l.2.11.23.1q.18.06.31.14c.55.28.85.69.94 1.32q.1.74-.18 1.96c-.36 1.65-.14 3.07.55 3.5l.07.04c.7.53.85 2.24.43 5-.4 2.72-.37 3.99.44 5.22q.21.3.48.62a12 12 0 0 0 1.33 1.33c.58.5 1.16.81 2.02.99 1.55.32 4.04.18 9.2-.18l9.78-.7 2.59 7.83c1.85 5.6 2.66 8.98 2.8 12.5h.01q.07 1.73-.05 3.63-.05.71-.14 1.15a2 2 0 0 1-.23.64l-.03.04-.11.1q-.22.12-.47-.25c-.44-.64-.88-2.31-1.01-4.58-.14-2.32-1.48-7.4-2.99-11.31-1.3-3.36-2.02-5.13-2.77-6.04-.75-.9-1.53-.94-2.93-.82-1.63.13-5.7.35-9.07.5l-.4.01a4 4 0 0 0-2.27.1l-3.43.15-1.74 14.3a312 312 0 0 1-4.57 26.6c-3.57 15.55-5.06 24.9-4.64 32.48q.13 2.27.48 4.37.08.38.17.76c.47 2.54 1.16 5 2.12 7.56.73 1.94 1.2 3.3 1.43 4.62q.12.66.16 1.33c.12 1.8-.13 3.84-.69 7.39-1 6.45-.95 8.78.31 14.15a53 53 0 0 1 .9 5.4q-.1.24-.14.96c-.04.88.12 1.44.37 1.4h.03c.17 1.96.27 3.86.25 5.4-.09 5.69.37 7.63 3.08 12.88a29 29 0 0 1 2.59 6.26q-.26-.12-.32 1.06c-.04.87.12 1.43.36 1.4l.07-.02.1-.07a1 1 0 0 0 .17-.29c.17 1.33.22 2.8.22 4.66q0 1.39.13 2.83.12 1.46.35 2.91a44 44 0 0 0 2.15 8.18q.45 1.2.97 2.2a9 9 0 0 0 2.12 2.94q.81.66 1.1.77l.07.02h.03l.05-.02.02-.03.01-.02a1 1 0 0 0 0-.2q0-.08-.04-.17-.09-.35-.34-1a38 38 0 0 1-1.61-6c-.12-.6-.12-1.15-.21-1.75-.24-1.57-.5-3.17-.56-4.6q.08.4.21.38l.04-.01q.08-.06.17-.28a3.5 3.5 0 0 0 .2-1.59q-.05-.5-.2-.91-.1-.25-.2-.29-.12-.03-.2.26l-.03.17q.03-.78.12-1.46c.12-.88.19-1.65.17-2.4-.04-2.22-.77-4.17-2.69-7.9-2.59-5-3.25-7.76-3.95-16.33-.46-5.66-1.13-13.1-1.48-16.51-.55-5.4-.18-9.68.85-10.92q.3-.37.67-.37h.06c.44.15.58 1.83.31 3.86-.5 3.75.42 9.53 1.98 13.68q.4 1.05.83 1.93.45.87.91 1.55a20 20 0 0 1 1.6 2.55q.36.72.33 1v.01l-.01.04q-.04.19-.29.12a2 2 0 0 1-.6-.32q-.22-.15-.5-.39-.33-.27-.62-.36a1 1 0 0 0-.28-.05q-.09 0-.18.02a1 1 0 0 0-.24.11l-.05.03-.2.2-.08.13q-.2.31-.33.8l-.03.1-.1.47q-.09.5-.13 1.1-.07 1.23.02 2.77.11 1.56.37 3.29a38 38 0 0 0 3.06 10.27c1.58 3.22 5.31 6.41 8.52 7.6a8 8 0 0 0 2.38.49 5 5 0 0 1 .91.09c.85.17 1.44.57 1.44 1.04v.05q0 .06-.04.12l-.02.04q-.14.21-.53.33.32-.26.12-.63c-.54-.86-3.53-.38-3.53.57a21 21 0 0 1-4.7-1.3l-.27-.08-.24-.03h-.16l-.05.02-.04.01-.05.02-.12.09-.07.07c-.28.38-.36 1.28-.32 3.08.02 1.17.1 2.7.2 4.7.33 6.21 1 9.46 2.52 12.02 1.92 3.27 1.98 3.96.8 9.9q-.53 2.7-.9 3.62l-.11.25q-.1.18-.17.22h-.05l-.06-.02-.02-.01a1 1 0 0 1-.14-.4q-.27-1.3-.07-6.52c.1-2.33-.1-3.66-.7-4.36a2 2 0 0 0-.34-.3l-.12-.07-.08-.05-.2-.1a4 4 0 0 0-1.19-.25c-.43-.02-.8.05-1 .2l-.06.05c-.65.66-.76 3.82-.44 7.74a71 71 0 0 0 2.04 12.24c1.16 4.22 2.11 8.1 2.11 8.64v.03l-.01.01c-.24.41-4.09.7-10.54.82.35-.1.47-.26.28-.45-.33-.34-1.2-.37-1.92-.08a2 2 0 0 0-.35.18l-.09.08q-.14.2.47.3h-1.6c.5-.07.72-.25.49-.48-.33-.34-1.2-.37-1.92-.08l-.31.15q-.22.14-.13.24v.01q.06.06.2.1l.2.04.29.04h-4.81c-14.29-.04-25.11.5-35.83 2.11-10.71 1.62-21.31 4.32-35.14 8.61-7.83 2.43-18.1 5.1-22.83 5.92a71 71 0 0 0-8.2 1.83c-1.52.46-2.81 1-4.01 1.57-4.17 2.01-6.65 4.84-8.99 9.56-4.09 8.25-5.16 15.9-2.93 25.76 1.34 5.91 3.87 12.63 7.65 20.76a308 308 0 0 1 8.9 21.74c2.18 6.1 9.15 21.58 15.5 34.41a466 466 0 0 1 10.74 22.87c.7 1.67.88 2.62 1.47 4.12 3.9 9.87 5.77 16.99 5.12 21.93a15 15 0 0 1-3.08 7.34c-1.94 2.55-3.07 3.37-5.27 3.54q-.47.03-1.01.03a18 18 0 0 0-2.24.11q-.23.05-.39.11l-.2.1a.7.7 0 0 0-.34.54q-.06.52.21 1.52c.48 1.91-.25 3.17-3.7 6.35a61 61 0 0 1-8.74 6.55 37 37 0 0 1-5.8 2.37c-2.62.9-5.8 1.85-9.11 2.77-6.64 1.83-13.88 3.48-18.53 4.07-5.6.71-8.26 1.11-9.77 1.94a4 4 0 0 0-.86.62c-.6.58-.97 1.34-1.42 2.41a10 10 0 0 0-.74 3.28q-.1 1.7.32 3.48a18 18 0 0 0 1.95 4.78c2.28 4 6.13 7.98 10.97 11.36a53 53 0 0 0 20.63 8.65c1.9.34 4.16.53 6.64.59 2.49.05 5.2-.04 8.03-.26 5.66-.44 11.74-1.4 17.25-2.81 7.06-1.81 14.7-2.85 26-3.52 14.61-.88 22.15-2.17 26.28-4.7q1.25-.79 2.14-1.72c1.98-2.11 2.2-3.1 1.65-7.27-.22-1.65-.55-5.3-.87-9.48l.02-.09c.23-1.51.23-3.99 0-5.5q-.1-.59-.17-.64h-.03q-.12.12-.17 1.2l-.18-2.81c-.65-10.62-1.5-15.46-3.66-17.5l-.29-.26a4 4 0 0 0-.96-.58 6 6 0 0 0-1.1-.34h-.01q-.4-.09-.83-.13-.76-.07-1.36-.17-.61-.12-1.1-.3l-.48-.24a4 4 0 0 1-1.23-1.17l-.38-.59q-.54-.95-1.15-2.54c-.54-1.42-1.15-3.27-1.93-5.68-6.41-19.89-10.68-45.39-10.7-64-.02-8.45-.61-16.76-1.5-20.97-2.42-11.4-10.67-27.03-17.94-33.93l-3.05-2.91 7 .6c4.05.34 13.83 2.7 23.21 5.6a303 303 0 0 0 24.27 6.64q3.4.72 5.97 1.1 2.56.35 4.26.33.75 0 1.56-.19c1.63-.36 3.38-1.2 4.73-2.3a14 14 0 0 1 1.76-1.16 58 58 0 0 1 8.74-3.97c4.13-1.47 8.06-3.1 8.75-3.63 2.86-2.19 24.36-30.84 27.71-36.94 2-3.64 5.38-11.55 7.52-17.59 2.94-8.32 5.48-14.41 8.52-19.93.42-.74.94-1.45 1.38-2.17 2.76-4.66 5.9-9.1 10.2-14.3l4.72-5.72-3.49-8.08a111 111 0 0 1-5.5-17.78c-.74-3.56-1.2-6.2-1.44-9.39q.1.04.23-.08c.34-.33.37-1.2.08-1.92q-.28-.68-.45-.37l-.03-.84q.15.37.4.13c.34-.33.37-1.2.08-1.92q-.3-.74-.47-.3l-.05.14c-.03-2.69.02-5.93.13-10.16q.08.69.2.67.02 0 .05-.03.07-.08.15-.38a7 7 0 0 0 .14-2.68q-.05-.45-.14-.82t-.18-.4h-.01q-.04-.03-.1.07v.04l.08-2.98c.26-8.05.35-13.6.27-17.39-.07-2.84-.23-4.69-.5-5.86l-.04-.15a7 7 0 0 0-.27-.8l-1.22-2.7-3.96 3.63.37-.46q.9-1.13.88-1.24L949 61zm59.67 199.94zq-.02.13.87 1.25c.76.96 1.55 1.75 1.75 1.75l.14-.01c.62-.1.05-.9-1.51-2.12a10 10 0 0 0-1.18-.86l-.03-.01zm-66.9 9.87zq-.02.13.87 1.25c.76.96 1.75 1.55 1.75 1.75q0 .27.13.27.06 0 .14-.04L946 270.97l-.05-.05c-.16-.17-.46-.26-.8-.28m23.26 11.41h.03c.33.13 1.96 2.81 3.75 6.2 3.6 6.85 12.5 18.2 21.25 27.15 2.48 2.53 4.34 4.67 4.53 5.15l.01.05v.03l-.01.01h-.01l-.02.01c-.34 0-3.25-2.2-6.46-4.88-6.2-5.2-12.28-12-16.72-18.74-2.42-3.68-6.23-12.44-6.42-14.54q-.01-.16 0-.28l.05-.14v-.01h.02m20.96 29.65h-.01v.01q-.05.13.88 1.64c.65 1.08 1.36 1.82 1.7 1.78h.01l.05-.02h.02l.01-.02h.01c.27-.27-.33-1.26-1.32-2.21a11 11 0 0 0-1.33-1.18zm-263.25 2.94q-.16.03-1.23.88c-.96.76-1.75 1.55-1.75 1.75q0 .38.23.38h.05l.05-.01q.22-.06.55-.36.51-.45 1.25-1.38.9-1.13.88-1.24L704 262zM1000 288.13c-.45 0-.9.07-1.25.2-.69.29-.12.51 1.25.51s1.94-.22 1.25-.5c-.34-.14-.8-.2-1.25-.2m30.93 7.81v.01h.01v.05c.04 2.13-2.57 9.33-5.35 14.82a41 41 0 0 1-4.5 6.5c-.94 1.13-1.72 1.93-2.03 2l-.04.01q-.04 0-.07-.02v-.01l-.02-.08.03-.23q.06-.19.2-.49c3.4-7.63 11.3-22.72 11.77-22.56m14.76 21.15c4.28.16 8.46.64 11.31 1.41 3.03.81 7.9 1.48 10.82 1.49 2.19 0 4.62.3 6.2.71q.4.1.71.22.33.1.54.23.53.27 1.05.64.53.36 1.02.8a12.5 12.5 0 0 1 3.31 4.2q.28.67.29 1.21c0 .87-1.21.03-2.9-2q-.96-1.17-1.7-1.88c-1.53-1.42-2.79-1.6-6.11-1.55a19.7 19.7 0 0 0-15.73 8.12 197 197 0 0 0-4.27 5.92 5 5 0 0 1-.93 1.2h-.04v-.01q-.1-.16.35-1.8a21.8 21.8 0 0 1 6.35-10.63c1.67-1.57 3.04-3.16 3.04-3.51v-.03l-.03-.05-.02-.03-.06-.05q-.17-.15-.61-.3-.72-.23-1.96-.48a84 84 0 0 0-6.39-.97c-4.93-.58-10.66-.97-13.86-.8q-2.71.15-4.22.06a8 8 0 0 1-1.2-.14q-1-.24-.2-.62l.38-.16q.89-.3 2.92-.65c3.26-.54 7.65-.7 11.94-.55m-4.67.2a3.4 3.4 0 0 0-1.67.58q-1.06.58-1.06.82 0 .03.02.06l.01.01c.16.16.84.2 2.13.21 2.15.02 2.65-.27 1.85-1.07-.4-.4-.8-.6-1.28-.6m-5.1.83c-.35-.01-.75.05-1.1.2q-.49.2-.47.34v.01q.06.2 1.07.25c.65.03 1.13-.05 1.32-.2l.02-.02q.13-.13-.03-.3c-.17-.17-.47-.26-.81-.28m66.1 12.87h-.01v.01h-.01q-.02.13.87 1.25c.76.96 1.55 1.75 1.75 1.75l.14-.01c.62-.1.05-.9-1.51-2.12a10 10 0 0 0-1.18-.86l-.03-.01zm-94.69 3.48c-.01.31.2.53.61.53q.1 0 .2-.02a70 70 0 0 1-2.66 6.36c-6.75 14.6-9.75 25.25-9.83 34.91l-.03 2.76c-.06 3.47-.15 5.99-.24 5.99q-.1 0-.23-.16l-.1-.12c-.86-1.39-2.05-7.51-2.05-11.16 0-8.91 5.03-23.38 12.64-36.39a43 43 0 0 1 1.7-2.7m-.77 2.53c-.29.03-.98.92-1.56 2-.59 1.1-.85 2-.57 2h.01c.29-.03.98-.92 1.56-2a6 6 0 0 0 .68-1.84v-.04l-.01-.03-.01-.03q-.03-.06-.09-.06zm106.78 19.35q-.21.02-.26 1.07c-.04.87.12 1.43.36 1.4l.07-.02.1-.07c.33-.33.36-1.2.07-1.92q-.2-.48-.34-.46m-130.9 2.44q-.03 0-.08.11l-.04.1q-.11.41-.12 1.5c-.02 1.28.1 2.04.28 2l.04-.01q.06-.04.14-.22c.27-.68.29-2.03.03-3q-.11-.44-.22-.48zm130.9 2.56q-.21.02-.26 1.07c-.04.87.12 1.43.36 1.4l.07-.02.1-.07c.33-.33.36-1.2.07-1.92q-.2-.48-.34-.46m-2.6 6.12h.02v.01l.03.03a1 1 0 0 1 .03.34v.1q-.03.68-.26 2.46c-.27 2.16-1.7 6.3-3.17 9.21a42 42 0 0 1-2.6 4.42 21 21 0 0 1-2.52 3.17 4 4 0 0 1-1.14.84l-.06-.01c-.33-.2.63-2.33 3.2-7.54a832 832 0 0 0 5.62-11.5q.44-.94.65-1.3.08-.15.14-.2l.04-.02zm-1.13 3.92c-.31 0-.74.52-1.05 1.32q-.47 1.22-.24 1.2h.02q.19-.04.79-.64c.68-.68.98-1.49.68-1.8a.3.3 0 0 0-.2-.08m-59.6 1.6zq-.02.13.87 1.25c.76.96 1.55 1.75 1.75 1.75l.14-.01c.62-.1.05-.9-1.51-2.12a10 10 0 0 0-1.18-.86l-.03-.01zm3.45 3.38a1 1 0 0 0-.85.45q-.12.21-.07.4l.01.04c.1.24.47.4 1 .4 1.68 0 1.83-.3.52-1.12q-.3-.18-.61-.17m-40.02 8.88h.26l.07.02q.07 0 .15.02.15.02.32.07l.05.01.35.14.09.04q.15.07.29.17l.06.04.3.24.1.08.22.24.07.07q.14.17.27.35l.04.07.2.34.05.1.08.2q.1.21.18.47l.08.23a6 6 0 0 1 .21 1.53 2 2 0 0 1-.11.6l-.14.22c-.3.37-.91.5-1.94.5l-.52-.03a5.4 5.4 0 0 1-3.21-1.52c-.47-.56-.71-.98-.73-1.4-.02-.53.34-1.05 1.13-1.83a4 4 0 0 1 1.2-.8l.04-.01.11-.04.14-.04a3 3 0 0 1 .59-.08m47.05 5.92c-.14.01-.23.85-.24 2.33 0 1.67.1 2.66.27 2.62l.02-.01q.07-.05.15-.35c.25-.95.26-2.75.02-4q-.1-.54-.2-.58zm-2.15 2.18q-.21.02-.26 1.07c-.04.87.12 1.43.36 1.4l.07-.02.1-.07c.33-.33.36-1.2.07-1.92q-.2-.48-.34-.46m-66.06 2.03a.4.4 0 0 0-.19.06c-.5.3-.67 1.46-.38 2.56q.52 1.96.88 1.91h.01q.39-.1.4-2.47c0-1.23-.31-2.07-.72-2.06m66.06.97q-.21.02-.26 1.07c-.04.87.12 1.43.36 1.4l.07-.02.1-.07c.33-.33.36-1.2.07-1.92q-.2-.48-.34-.46m-39.42.77c-.35-.01-.75.05-1.1.2-.8.32-.57.55.6.6.65.03 1.13-.05 1.32-.2l.02-.02q.13-.13-.03-.3c-.17-.17-.47-.26-.81-.28m39.42 2.23q-.21.02-.26 1.07c-.04.87.12 1.43.36 1.4l.07-.02.1-.07c.33-.33.36-1.2.07-1.92q-.2-.48-.34-.46m55.15 10.82c-.14.01-.23.85-.24 2.33 0 1.67.1 2.66.27 2.62l.02-.01q.07-.05.15-.35c.25-.95.26-2.75.02-4q-.1-.54-.2-.58zm-626.57 5.95c-.35-.01-.75.05-1.1.2-.8.32-.57.55.6.6.65.03 1.13-.05 1.32-.2l.02-.02.06-.09q.02-.1-.1-.21c-.16-.17-.46-.26-.8-.28m506.53.67c-.14.02-.24.63-.25 1.71-.02 1.28.1 2.04.28 2l.04-.01q.06-.04.14-.22c.27-.68.29-2.03.03-3q-.11-.44-.22-.48zm64.05.43c-.13.04-.23 1.06-.23 2.78 0 1.8.1 2.82.25 2.78h.01v-.01l.02-.01q.07-.07.16-.51a13 13 0 0 0 .13-3.45 10 10 0 0 0-.13-1.05q-.09-.44-.16-.51h-.01v-.01h-.04m51.2 1.58h.04l.03.01.01.01h.01v.01l.02.02.02.04v.04l.01.01v.06l-.02.27v.07a22.35 22.35 0 0 1-.6 1.81c-.54 1.4-1.4 3.4-2.7 6.08-1.9 4-4.11 9.52-4.9 12.27a52 52 0 0 1-1.16 3.76l-.08.12-.02.01-.02.01h-.03l-.02-.03-.03-.05-.04-.18q-.07-.56-.12-2.23v-.14c.22.51.77.02 1.28-1.32.34-.9.18-1.3-.4-.94a2.3 2.3 0 0 0-.86 1.03q.05-.94.17-1.92.14-.99.36-2 .45-2.03 1.25-4.15t1.9-4.26a44 44 0 0 1 2.54-4.26 37 37 0 0 1 2.51-3.4l.36-.4.33-.29.07-.03.05-.02h.03zM475.99 423q-.16 0-1.23.87c-.96.76-1.75 1.55-1.75 1.75q0 .38.23.38h.05l.05-.01q.21-.06.55-.36.51-.45 1.25-1.38.9-1.13.88-1.24L476 423zm536.54 3h.04q.21.07.66.73.41.61.97 1.66a95 95 0 0 1 2.6 5.34h.01c1.92 4.2 4.02 9.3 5.34 13.2a52 52 0 0 1 2.53 10.45c.65 5.38.05 10.34-1.76 16.26-1 3.24-2.16 6.3-2.83 7.46q-.16.27-.29.4-.45.45-.6.3l-.03-.06-.02-.06v-.27q0-.1.04-.24.05-.28.15-.67c1.35-4.82 3.67-17.66 3.65-20.2 0-.8-.25-2.25-.66-4.07-.4-1.82-.97-4.01-1.61-6.29-1.29-4.55-2.9-9.45-4.18-12.44-1.3-3.02-2.41-5.88-3.15-8-.14-.4-.2-.63-.31-.98-.18-.56-.4-1.19-.49-1.56q-.09-.4-.12-.63a1 1 0 0 1 0-.27l.02-.04h.01l.01-.01zm-18.04 13.84c-.15.03-.25.82-.25 2.16 0 1.4.11 2.2.27 2.16l.03-.02a1 1 0 0 0 .16-.39 7 7 0 0 0 .14-2.68q-.05-.45-.14-.82-.1-.34-.17-.4zm6.97 6.95c-.14.02-.24.63-.25 1.71-.02 1.28.1 2.04.28 2l.04-.01q.06-.04.14-.22c.27-.68.29-2.03.03-3q-.11-.44-.22-.48zm-495.47 1.2q-.16.03-1.23.88c-.96.76-1.75 1.55-1.75 1.75q0 .38.23.38h.05l.05-.01q.21-.06.55-.36.51-.45 1.25-1.38.9-1.13.88-1.24L506 448zm570.58 2.1q.19-.02.06 1.02-.11-.5-.44-.58l.14-.21q.15-.2.22-.22zm-582.64 4.03c-.35-.01-.75.05-1.1.2-.8.32-.57.55.6.6.65.03 1.13-.05 1.32-.2l.02-.02.06-.09q.02-.1-.1-.21c-.16-.17-.46-.26-.8-.28m599.52 20.23h.1l.03.01.02.01h.01v.01l.03.02.02.01v.02h.01l.02.04.01.06v.11l-.01.05-.01.02q0 .05-.04.1v.02l-.16.32c-.42.74-1.53 2.25-2.47 3.35-.93 1.1-4.05 5.94-6.92 10.75-3.03 5.1-4.65 7.64-5.44 8.41l-.1.1-.2.14-.1.03a.2.2 0 0 1-.14-.07l-.02-.02q-.09-.16-.08-.51c0-1.5 8.38-16.99 10.37-19.17q.92-.99 1.88-1.8l.48-.4q.72-.56 1.34-.95c.16-.1.34-.25.48-.32l.09-.05.42-.2h.02l.17-.06zm-108.57 18.77c-.73 0-1.49.05-2.1.17a3 3 0 0 0-.54.15l-.06.06v.03h.01l.02.02c.19.12 1 .2 2.3.2 1.58 0 2.55-.1 2.62-.24v-.04q-.05-.07-.36-.16a8 8 0 0 0-1.9-.2m-13.95 0c-.35-.01-.75.05-1.1.2q-.45.18-.47.32 0 .23 1.07.28c.65.03 1.13-.05 1.32-.2l.02-.02.06-.09q.02-.1-.1-.21c-.16-.17-.46-.26-.8-.28m3.96 0c-.54 0-1.12.06-1.61.19-.97.25-.42.47 1.23.5 1.16 0 1.9-.09 2-.24v-.03h.01q0-.1-.24-.2a4 4 0 0 0-1.39-.21m123.45 2.44-4.4 8.47c-5.79 11.15-14.08 22.04-28.97 37.97a8 8 0 0 0-1.21.87c-.96.76-1.75 1.55-1.75 1.75q0 .3.14.37l-.22.23-.19.2q.2-.31.16-.4l-.01-.01-.03-.01c-.28 0-1.56 1.12-2.85 2.5-1.21 1.29-2.02 2.36-1.89 2.49l.04.01h.01l.1-.03q.2-.09.6-.42c-11.4 12.33-21.1 24.18-23.59 28.95-.57 1.1-2 5.52-3.17 9.81-2.7 9.9-5.7 15.82-12.06 23.73a38 38 0 0 0-4.63 7.07q-.27.6-.36 1l-.01.06-.03.24c.02 3.78 11.41 46.03 14.57 54.03q.67 1.69 1.51 3.24c3.92 7.25 10.59 12.25 18.16 13.45 6.42 1.01 12.8-.25 25.75-5.1 5.78-2.16 18.28-5.99 27.8-8.5a890 890 0 0 0 35.9-10.54c25.3-8.1 39-11.07 54.2-11.74l12.4-.55-.66 2.6q-.12.45-.18.8v.05q-.1.5-.06.85.05.47.45.76.1.08.24.14l.28.12q.78.28 2.37.55c3.19.56 6.63 2.95 8.95 5.84q.7.86 1.25 1.77.27.45.5.92.24.45.42.92.37.92.52 1.82a23 23 0 0 0 2.66 7.02c.79 1.29 1.35 2.1 2.05 2.52q.18.1.37.18.56.22 1.35.15a9 9 0 0 0 1.22-.19c.92-.2 2.08-.55 3.58-1.02a2.5 2.5 0 0 1 1.5-.04c1.08.35 2.25 1.63 4.35 4.5a31 31 0 0 1 6.17 14.87q.37 2.76.37 5.9c0 5.09.45 7.75 2.1 9.75l.48.53q.51.51 1.15.99.65.47 1.44.95c1.6.98 3.4 1.35 5.14 1.16a8 8 0 0 0 1.48-.29 8.62 8.62 0 0 0 4.38-3.04c2.07-2.75 5.33-13.59 7.46-24.8a70 70 0 0 0 1.2-9.3c.48-8.9-1.31-17.35-6.2-32.36-3.03-9.25-6.94-21.77-8.7-27.82-2.45-8.41-4.1-13.22-5.71-15.8a8 8 0 0 0-1.07-1.42 5 5 0 0 0-1.1-.84 3.5 3.5 0 0 0-1.82-.4c-1.5 0-3.63.7-4.73 1.54-2.55 1.92-16 5.99-24.7 7.47-1.6.27-2.82.49-3.77.71q-.7.17-1.23.35-.53.19-.9.4a3 3 0 0 0-.93.82q-.35.48-.62 1.19-.19.48-.38 1.08c-.6 1.79-1.81 3.65-2.78 4.29l-.15.09c-3.28 1.75-26.36 5.92-39.6 7.14-2.1.2-3.94.35-5.62.47q.01-.09-.1-.2c-.32-.33-1.19-.36-1.9-.07q-.24.1-.36.17l-.1.1q-.04.08.03.14c-1.1.05-2.11 0-3.15 0l.68-.01q1.11-.07 1.2-.21v-.04q-.05-.07-.36-.16c-.95-.25-2.75-.26-4-.02q-.54.1-.58.2l-.01.02.01.02c.1.11.8.18 1.88.2-1.1 0-2.2.06-3.35 0q.21-.13.02-.33c-.33-.34-1.2-.37-1.92-.08q-.37.16-.45.27c-2.7-.2-5.77-.52-9.7-.99-13.52-1.59-22.25-1.48-31.52 1.33a66 66 0 0 0-5.66 2.02c-3.88 1.57-8 3.6-12.73 6.17l-7.57 4.11-.37 2-.13-.42c-.32-.8-.55-.56-.6.6-.04.87.12 1.42.36 1.41h.03l.06-.03-.57 3.08a49 49 0 0 1-1.94 7.7l-.21.43q-.3.44-.44.24l-.05-.08-.08-.28-.04-.3c-.17-1.58.2-5.6.88-10.23a1 1 0 0 0 .92.65c.55 0 1-.2 1-.44s-.45-.72-1-1.06q-.46-.27-.75-.1l-.04.02c.58-3.77 1.35-7.86 2.21-11.32 3.7-14.87 5.34-26.46 5.27-38.4v-.01c-.02-3.98-.24-8-.63-12.2l-1.12-12 6.35-6.51a65 65 0 0 0 9.08-11.4c3.97-6.48 6.29-13.5 7.7-22.55.31-2.05.48-4.36.5-6.79a71 71 0 0 0-.37-7.57 69 69 0 0 0-3.06-14.78zM903.27 510.2a2 2 0 0 1 .59.05l.05.02.02.02.02.02v.02l.01.02v.02l-.05.08c-.4.44-2.9 1.35-6.41 2.3-5.23 1.4-8.7 2.29-10.72 2.7l-.05-.05c-.33-.34-1.2-.37-1.92-.08l-.06.02a4 4 0 0 1 .9-.54l.3-.13.48-.2c.23-.1.56-.21.84-.31.4-.15.8-.3 1.29-.46.6-.2 1.36-.4 2.03-.6 1.19-.36 2.36-.72 3.65-1.07.76-.2 1.45-.34 2.2-.52 1.16-.29 2.33-.58 3.34-.78 1.46-.3 2.77-.52 3.5-.53m167.7 24.8q-.14 0-1.22.87c-.96.76-1.75 1.55-1.75 1.75q0 .38.23.38h.05l.05-.01q.22-.06.55-.36.51-.45 1.25-1.38.9-1.13.88-1.24l-.01-.01zm-165.72 9.2a3 3 0 0 0-.5.14q-.4.15-.26.29h.01l.06.05.04.01q.35.15 1.4.15.52 0 .87-.04c.7-.07.9-.25.38-.46l-.2-.07c1.5.1 4.97.74 7.14 1 8.43 1 19.06 2.6 28.4 4.6 1.08.22 2.41.45 3.39.67l1.03.26c2.8.67 5 1.29 6.49 1.84.3.1.77.23 1 .33l2 .9-1.83-.02q.32-.1.33-.24c0-.22-.67-.66-1.5-.97-.83-.32-1.5-.14-1.5.4q0 .29.25.52l.07.07c-10.06-1.34-48.22-8.2-48.9-8.88l-.06-.06-.03-.05-.03-.09.01-.03a.2.2 0 0 1 .08-.1l.06-.04q.09-.04.22-.07l.09-.02.2-.03q.16-.02.34-.03.36-.03.86-.03zm150.6 6.8c-.28 0-1.56 1.12-2.85 2.5-1.21 1.29-2.02 2.36-1.89 2.49l.04.01h.01c.3-.03 1.57-1.15 2.84-2.5a17 17 0 0 0 1.86-2.3l.03-.09.01-.06v-.03h-.01V551h-.02zm-133.82 8.12c-.93.01-2 1.1-1.49 1.95.32.51.8.93 1.08.93h.02l.07-.02.01-.01c.15-.11.07-.5-.22-.97q-.29-.48-.03-.77l.06-.06q.2-.16.58-.17c.67 0 .95-.27.62-.6a1 1 0 0 0-.7-.28m166.95 2.87q-.16.03-1.23.88c-.96.76-1.75 1.55-1.75 1.75q0 .38.23.38h.05l.05-.01q.22-.06.55-.36.51-.45 1.25-1.38.9-1.13.88-1.24l-.01-.01zM294.8 569c-.3.03-1.32.92-2.3 2-1 1.1-1.59 2-1.31 2h.01c.3-.03 1.32-.92 2.3-2 .62-.69 1.09-1.3 1.28-1.66l.1-.22v-.08h-.01q-.01-.04-.06-.04zm785.54 1.35q-.21.02-.26 1.07c-.04.87.12 1.43.36 1.4l.07-.02.1-.07c.33-.33.36-1.2.07-1.92q-.2-.48-.34-.46m-174.99 9.81h.04l.01.01h.01l.1.06.04.04.11.12a.5.5 0 0 0-.43.21l-.05.07.04-.35.01-.04v-.01l.01-.01.01-.02v-.01l.01-.01h.01v-.02h.01l.01-.01h.01l.03-.02zm1.18 1.77a58 58 0 0 1 2.42 6.5c4.59 14.49 11.06 26.14 19.99 36a71 71 0 0 1 5.04 6.02l.02.06v.1l-.01.04-.02.04-.03.06-.04.05-.09.05h-.07a1.3 1.3 0 0 1-.6-.2c-.9-.48-2.44-1.84-4.27-3.69.43-.17-.16-.94-1.62-2.09a10 10 0 0 0-1.19-.86c-3.8-4.17-7.97-9.37-10.14-13.03-3.8-6.38-8.7-19.58-10.42-27.98v-.04h.04q.07 0 .16-.05.32-.15.76-.84zM257.8 586c-.3.03-1.32.92-2.3 2-1 1.1-1.59 2-1.31 2h.01c.3-.03 1.32-.92 2.3-2 .62-.69 1.09-1.3 1.28-1.66l.1-.22v-.08h-.01q-.01-.04-.06-.04zm649.65 1.32a.2.2 0 0 0-.17.07c-.27.26-.18.96.18 1.54.98 1.6 1.56 1.29.89-.47-.27-.7-.64-1.14-.9-1.14m-628.53 7.8c-.35-.01-.75.05-1.1.2q-.6.23-.45.4.16.16 1.05.2c.65.03 1.13-.05 1.32-.2l.02-.02.06-.09q.02-.1-.1-.21c-.16-.17-.46-.26-.8-.28m15.58 10.38 3.45 3.75c3.2 3.49 4.05 4.21 4.05 3.45 0-.17-1.69-1.86-3.75-3.75zm646.01 1.05c-.13.07-.22 1.12-.22 2.95-.01 2 .09 3.2.23 3.24h.01q.03 0 .04-.03.06-.07.13-.45c.24-1.23.25-3.48.02-5q-.1-.61-.18-.7h-.03m-549.63 6.56c-1.09 0-2.21.05-3.11.17q-.79.09-.83.18v.02c.09.12 1.37.2 3.56.2 2.22.01 3.61-.07 3.83-.19l.02-.02v-.02q-.04-.08-.58-.17c-.75-.1-1.8-.17-2.9-.17m35.12 0a13 13 0 0 0-2.6.27l-.15.06-.01.01c-.17.16.87.28 2.76.28 1.24 0 2.11-.05 2.52-.13q.3-.06.25-.13t-.52-.18a13 13 0 0 0-2.25-.18m-27.12.02a6 6 0 0 0-1.9.27l-.16.09c-.18.17.44.3 1.68.31 1.16.02 1.9-.08 2-.23v-.03h.01q0-.1-.24-.2a4 4 0 0 0-1.39-.21m33.12 0c-.45 0-.9.07-1.25.2l-.2.1-.03.03-.03.03v.01c-.17.2.41.34 1.51.34 1.38 0 1.94-.23 1.25-.5-.34-.14-.8-.2-1.25-.2m-25.71.13q-1.34.09-1.42.16v.02h.01l.06.02.5.06c.94.06 3.04.1 6.06.1 4.16 0 6.69-.07 6.93-.18l.02-.01v-.02q-.1-.07-1.16-.15c-2.87-.2-7.82-.2-11 0M248 614.1a28 28 0 0 0-3.77.25l-.2.06h-.02v.01l-.02.01v.02c.1.13 1.55.22 4.01.22 1.79 0 3.05-.04 3.64-.12q.33-.04.37-.1v-.01l-.01-.02q-.08-.07-.75-.15c-.9-.11-2.07-.17-3.25-.17m-90 0c-.82 0-1.63.07-2.25.18-1.24.24-.22.44 2.25.44 1.24 0 2.11-.05 2.52-.13q.3-.06.25-.13t-.52-.18a13 13 0 0 0-2.25-.18m97.92.01a3 3 0 0 0-1.36.31q-.24.14-.21.24.08.2 1.07.25c.65.03 1.13-.05 1.32-.2l.02-.02.06-.09q.02-.1-.1-.21c-.16-.17-.46-.26-.8-.28m-81.67.13c-1.75.05-2.7.09-2.94.12l-.03.01h-.02v.01c.18.1 5.93.18 15.74.18s15.56-.07 15.74-.17v-.01c-.08-.04-1.05-.09-2.99-.14-7.01-.17-18.49-.17-25.5 0m45 0a15 15 0 0 0-1.81.15v.01c.18.11 3.67.19 9.56.19 4.26 0 7.27-.04 8.67-.1q.75-.03.88-.08h.01v-.01q-.07-.07-1.81-.15c-4.26-.19-11.24-.19-15.5 0m721.2.54q-.14.02-.2.68-.05.41-.05 1.03c-.02 1.28.1 2.04.28 2l.04-.01q.06-.04.14-.22c.27-.68.29-2.03.03-3q-.11-.44-.22-.48zm62.6 3.21c-.5 0-1.16.38-1.45.83-.28.46.14.84.94.84s1.46-.38 1.46-.84-.42-.83-.94-.83m-695.55.5 1.9 2.25c1.05 1.24 2.06 2.25 2.25 2.25l.14-.01c.59-.1-.06-.9-2.04-2.58zm45.84.85q-.21.02-.26 1.07c-.04.87.12 1.43.36 1.4l.07-.02.1-.07c.33-.33.36-1.2.07-1.92q-.2-.48-.34-.46m-100.36 6.64q-.16.03-1.23.88c-.96.76-1.75 1.55-1.75 1.75q0 .38.23.38h.05l.05-.01q.21-.06.55-.36.51-.45 1.25-1.38.9-1.13.88-1.24L253 626zm-7.98 3.13a7 7 0 0 0-1.75.19c-.96.25-.18.46 1.75.46q.73 0 1.22-.04 1-.07.94-.24-.04-.07-.41-.18a7 7 0 0 0-1.75-.19m51.5 7.38 2.42 2.75c1.34 1.51 2.57 2.75 2.75 2.75.79 0 .15-.81-2.42-3.08zm853.88 11.72a14 14 0 0 0-1.88 1.78c-.7.78-1.2 1.46-1.34 1.79q-1.02.82-2.31 1.79a88 88 0 0 1-19.62 10.63q-3.47 1.36-6.73 2.25c-3.05.84-9.84 1.7-15.62 2q.11-.2.12-.46v-.18c-.04-.42-.2-.75-.38-.81q6.5-1.14 12.48-2.74a111 111 0 0 0 21.7-8.16 81 81 0 0 0 9.02-5.34q1.94-1.32 3.07-1.94.97-.53 1.38-.6h.01zm46.5 6.9a18 18 0 0 0-2.62.16q-.67.1-.7.2v.01c.06.13 1.11.22 2.94.22 1.72 0 2.85-.06 3.15-.18q.07-.02.08-.04v-.02q0-.09-.47-.17c-.61-.12-1.48-.18-2.39-.19m-94.49 11.93c-.25.13-.62.5-.89.95a1 1 0 0 0-.16.54l-10.84.42 9.5-1.51zm120.02 6.37c.32 0 .76.26 1.44.79q1.03.81 1.14.8l.01-.01v-.02a7 7 0 0 0-1.05-1.45q.3.25.66.57c1.31 1.24 2.39 2.84 2.39 3.57v.2q-.03.29-.12.5c-.37.83-1.48.79-2.62.04l-.38-.27q-.78-.6-1.44-1.6a8 8 0 0 1-.96-1.9q.08-.15.2-.43c.2-.53.41-.8.73-.8m45.04 4.37c-.14.02-.24.63-.25 1.71-.02 1.28.1 2.04.28 2l.04-.01q.06-.04.14-.22c.27-.68.29-2.03.03-3q-.11-.44-.22-.48zm-308.53 12.33c-.35-.01-.75.05-1.1.2q-.57.23-.46.38v.01q.16.17 1.06.21c.65.03 1.13-.05 1.32-.2l.02-.02.06-.09q.02-.1-.1-.21c-.16-.17-.46-.26-.8-.28m6.42 12.23q-.21.02-.26 1.07c-.04.87.12 1.43.36 1.4l.07-.02.1-.07c.33-.33.36-1.2.07-1.92q-.2-.48-.34-.46m276.17 2.2-.06.1-.03.13c-.08.4-.13 1.34-.13 2.72-.01 2 .09 3.2.23 3.24h.01q.03 0 .04-.03.06-.07.13-.45c.24-1.23.25-3.48.02-5q-.1-.61-.18-.7h-.02m-276.06 1.24c-.14.02-.24.63-.25 1.71-.02 1.28.1 2.04.28 2l.04-.01q.06-.04.14-.22c.27-.68.29-2.03.03-3q-.11-.44-.22-.48zm-913.47 6.2q-.16.03-1.23.88c-.96.76-1.75 1.55-1.75 1.75q0 .38.23.38h.05l.05-.01q.22-.06.55-.36.51-.45 1.25-1.38.9-1.13.88-1.24L52 712zm915.36 15.36q-.21.02-.26 1.07c-.04.87.12 1.43.36 1.4l.07-.02.1-.07c.33-.33.36-1.2.07-1.92q-.2-.48-.34-.46m-932.36 1.64q-.16.03-1.23.88c-.96.76-1.75 1.55-1.75 1.75q0 .38.23.38h.05l.05-.01q.22-.06.55-.36.51-.45 1.25-1.38.9-1.13.88-1.24L35 729zm816.52 4.51 1.9 2.25c1.05 1.24 2.06 2.25 2.25 2.25l.14-.01c.59-.1-.06-.9-2.04-2.58zM288 752.11a13 13 0 0 0-2.6.27q-.18.06-.18.1v.02h.01c.1.14 1.1.23 2.77.23 1.24 0 2.11-.05 2.52-.13q.3-.06.25-.13t-.52-.18a13 13 0 0 0-2.25-.18m30.87 0a11 11 0 0 0-2.48.27l-.2.08-.02.05c.03.14.87.23 2.33.24 1.58 0 2.55-.1 2.62-.24v-.04q-.05-.07-.36-.16a8 8 0 0 0-1.9-.2m6.13.01a7 7 0 0 0-2.03.28q-.13.06-.13.11v.01c.03.15.82.25 2.16.25q.73 0 1.22-.04c.66-.04 1-.13.93-.24q-.04-.09-.4-.18a7 7 0 0 0-1.75-.19m6.88 0c-.54 0-1.12.06-1.61.19a1 1 0 0 0-.45.18l-.02.02-.01.03v.02c.06.14.67.23 1.71.24 1.65.02 2.45-.18 1.77-.46a4 4 0 0 0-1.39-.21m-34.1.14q-1.44.07-1.52.15v.01h-.01v.01c.17.11 2.79.19 7.25.19 4.43 0 7.17-.07 7.53-.18l.04-.02v-.01q-.08-.07-1.28-.15c-3.14-.2-8.54-.2-12 0M20 753.1c-1.18 0-2.36.06-3.25.17q-.7.09-.76.16v.02c.1.13 1.55.22 4.01.22 1.79 0 3.05-.04 3.64-.12q.33-.04.37-.1v-.01q-.06-.09-.76-.17c-.9-.11-2.07-.17-3.25-.17m11.88 0c-1.09 0-2.21.05-3.11.17a5 5 0 0 0-.7.12l-.06.01-.06.04v.04c.17.12 1.44.2 3.55.2 2.22 0 3.6-.08 3.83-.2l.02-.02v-.02q-.04-.08-.58-.17c-.75-.1-1.8-.17-2.9-.17m27 0c-1.09 0-2.21.05-3.11.17a4 4 0 0 0-.82.17v.03q.03.05.27.08c.5.08 1.63.13 3.28.13 2.22 0 3.6-.08 3.83-.2l.02-.02v-.02q-.04-.08-.58-.17c-.75-.1-1.8-.17-2.9-.17m72.41.15q-1.52.08-1.64.15h-.01v.02h.03c.32.11 3.14.18 7.83.18 5.03 0 8.03-.07 8.18-.19v-.01q-.07-.08-1.39-.15c-3.41-.2-9.26-.2-13 0m-62.04 0a6 6 0 0 0-1.34.15l-.01.01v.01l.02.01h.03q.13.04.62.08c1.04.06 3.27.1 6.43.1s5.4-.04 6.43-.1q.6-.04.66-.09h.01v-.01l-.01-.01q-.1-.08-1.34-.15c-3.16-.2-8.34-.2-11.5 0m22 0a8 8 0 0 0-1.34.15l-.01.01v.01c.17.11 2.75.2 7.1.2 3.16 0 5.4-.05 6.43-.11q.6-.04.66-.09h.01v-.01l-.01-.01q-.1-.08-1.34-.15c-3.16-.2-8.34-.2-11.5 0m64 0a8 8 0 0 0-1.34.15l-.01.01v.01c.17.11 2.75.2 7.1.2 3.16 0 5.4-.05 6.43-.11q.6-.04.66-.09h.01v-.01l-.01-.01q-.1-.08-1.34-.15c-3.16-.2-8.34-.2-11.5 0m-42.97 0a8 8 0 0 0-1.18.17v.01c.1.12 2.05.2 5.4.2 3.44 0 5.53-.07 5.7-.2h.01v-.02q-.07-.08-.93-.15a65 65 0 0 0-9 0m-71.53 0q-.76.08-.94.14h-.02l-.03.03v.01q0 .03.07.04c.4.1 2.25.17 5.17.17 2.34 0 3.98-.04 4.75-.11q.45-.04.5-.1v-.01h-.01q-.07-.07-.99-.16a57 57 0 0 0-8.5 0"  fill="currentColor" transform="translate(-12 -42.1)"/></svg>